<?xml version="1.0" standalone="no"?>
<!DOCTYPE svg PUBLIC "-//W3C//DTD SVG 20010904//EN"
 "http://www.w3.org/TR/2001/REC-SVG-20010904/DTD/svg10.dtd">
<svg version="1.0" xmlns="http://www.w3.org/2000/svg"
 width="636.000000pt" height="638.000000pt" viewBox="0 0 636.000000 638.000000"
 preserveAspectRatio="xMidYMid meet">

<g transform="translate(0.000000,638.000000) scale(0.100000,-0.100000)"
fill="#000000" stroke="none">
<path d="M1142 6312 c-27 -3 -34 -8 -39 -32 -5 -26 -10 -29 -47 -32 -41 -3
-41 -3 -41 -43 l0 -40 48 -3 47 -3 0 45 c0 44 1 46 29 46 44 0 61 10 61 35 0
26 -12 32 -58 27z"/>
<path d="M1401 6312 c-6 -2 -11 -12 -11 -22 0 -24 -19 -38 -60 -42 -33 -3 -35
-5 -38 -45 l-3 -43 -90 0 c-64 0 -89 -4 -90 -12 -2 -22 3 -73 7 -77 2 -2 36
-5 76 -7 40 -1 79 -3 86 -3 8 -1 12 -17 12 -45 l0 -45 -42 -3 c-43 -3 -43 -3
-46 -45 -3 -43 -3 -43 -42 -43 -49 0 -58 -16 -53 -90 5 -90 0 -100 -52 -100
l-45 0 0 45 0 45 -45 0 -45 0 0 -45 c0 -41 -2 -45 -24 -45 -33 0 -35 6 -37 91
-1 83 -9 99 -49 99 -48 0 -51 -12 -48 -231 l3 -204 41 -3 c38 -3 42 -6 48 -34
10 -51 7 -133 -6 -146 -7 -7 -24 -12 -38 -12 -35 0 -50 17 -50 56 0 35 -13 44
-60 44 -27 0 -29 3 -32 43 -3 42 -3 42 -48 47 -40 4 -45 8 -48 33 -3 25 -1 27
35 27 46 0 63 14 63 50 0 34 -17 50 -52 50 -32 0 -48 -24 -48 -69 0 -30 -1
-31 -45 -31 l-45 0 0 44 c0 31 -5 46 -16 50 -9 3 -64 6 -124 6 -60 0 -115 -3
-124 -6 -11 -4 -16 -19 -16 -50 l0 -44 -45 0 -45 0 0 -157 c0 -87 -4 -163 -8
-169 -4 -7 -18 -14 -32 -15 -20 -3 -26 -10 -28 -38 -2 -18 0 -37 5 -42 4 -4
53 -9 108 -9 149 -2 137 -6 133 43 -3 41 -4 42 -43 47 l-40 5 -3 168 -2 167
44 0 c40 0 44 -2 49 -30 6 -27 10 -30 47 -30 37 0 41 3 47 30 5 28 9 30 49 30
39 0 43 -2 46 -27 3 -25 7 -28 46 -31 39 -3 42 -5 42 -32 0 -51 9 -60 56 -60
l44 0 0 -39 c0 -21 -6 -43 -13 -49 -7 -6 -49 -12 -92 -14 l-80 -3 -3 -42 c-3
-42 -3 -42 -45 -45 -42 -3 -42 -3 -45 -45 l-3 -43 45 0 46 0 0 45 0 45 179 0
c134 0 181 -3 189 -13 6 -7 10 -47 9 -92 l-2 -80 -92 -3 -93 -3 0 39 c0 45
-14 62 -50 62 -36 0 -50 -17 -50 -61 0 -37 -1 -38 -42 -41 -43 -3 -43 -3 -43
-43 0 -40 0 -40 43 -43 l43 -3 -3 -47 -3 -47 -87 -3 -88 -3 0 -32 c0 -49 -14
-57 -106 -57 l-83 0 -3 48 c-2 38 -6 47 -20 46 -10 -1 -30 -2 -44 -3 -23 -1
-25 -4 -22 -43 3 -43 3 -43 45 -46 l42 -3 3 -71 c2 -52 7 -74 19 -81 23 -14
69 0 69 21 0 34 21 42 106 42 l83 0 3 43 c3 42 3 42 45 45 l43 3 0 49 0 49 35
-6 c46 -7 65 9 65 58 l0 39 89 0 c97 0 101 3 101 61 0 24 4 29 24 29 13 0 27
7 30 16 3 9 6 91 6 184 0 162 1 169 21 175 11 4 31 4 44 1 23 -6 24 -11 27
-94 l3 -87 93 -3 93 -3 -3 -42 c-3 -40 -5 -42 -42 -48 -39 -6 -58 -23 -49 -45
10 -26 -16 -53 -55 -56 -36 -3 -37 -4 -37 -43 l0 -40 70 -3 c109 -4 115 -6
115 -51 0 -42 11 -51 60 -51 27 0 29 -3 32 -42 3 -41 5 -43 36 -46 43 -4 62
12 62 54 0 34 0 34 45 34 l46 0 -3 -87 -3 -88 -182 -3 c-169 -2 -183 -1 -184
15 0 10 -1 41 0 68 0 89 -4 97 -52 93 -41 -3 -42 -4 -47 -43 -5 -39 -6 -40
-45 -40 -39 0 -40 1 -45 40 -4 35 -9 40 -32 43 -27 3 -28 2 -29 -45 -1 -26 0
-75 1 -109 3 -93 -2 -96 -179 -94 -221 2 -199 7 -203 -42 l-3 -43 -182 -3
-183 -2 0 68 c0 70 -10 92 -42 92 -22 0 -30 -30 -26 -101 3 -53 4 -54 36 -57
l32 -3 0 -94 0 -94 -32 -3 -33 -3 0 -85 c0 -82 1 -85 24 -88 34 -5 41 12 41
101 l0 78 42 -3 c42 -3 43 -4 48 -43 l5 -40 85 -3 c92 -3 100 -8 100 -59 l0
-33 128 0 c138 0 152 -5 152 -50 0 -35 -17 -50 -57 -50 -26 0 -34 -5 -39 -24
-11 -46 -2 -61 41 -64 45 -4 55 -14 55 -59 0 -39 11 -47 55 -39 l34 7 3 87 3
87 42 3 c37 3 43 0 48 -21 4 -13 5 -27 4 -33 -4 -25 4 -34 31 -34 29 0 30 -2
30 -44 0 -40 -2 -44 -30 -49 -26 -6 -30 -11 -30 -40 0 -50 -14 -57 -107 -57
l-83 0 0 50 0 49 -47 -2 -48 -2 0 -45 0 -45 48 -3 c46 -3 48 -4 45 -30 -3 -24
-8 -27 -43 -30 -45 -4 -55 -14 -55 -59 0 -30 -3 -33 -32 -33 -46 0 -56 -10
-60 -55 -3 -39 -4 -40 -46 -43 l-42 -3 0 -83 c0 -89 -8 -106 -50 -106 -42 0
-50 17 -50 106 l0 83 48 3 47 3 3 93 3 92 89 0 90 0 0 29 c0 28 -3 30 -43 33
-40 3 -42 5 -45 37 -4 41 9 56 51 56 31 0 32 1 35 48 l3 47 -128 0 c-87 0
-133 -4 -141 -12 -12 -12 -17 -134 -6 -162 4 -11 19 -16 44 -16 25 0 40 -5 44
-16 14 -36 7 -44 -38 -44 -53 0 -56 -5 -56 -111 l0 -79 -45 0 -44 0 -3 123 -3
122 -75 0 c-73 0 -75 -1 -75 -25 0 -17 7 -26 24 -30 32 -7 45 -31 37 -63 -5
-20 -13 -27 -31 -27 -31 0 -37 -22 -33 -115 l3 -70 33 -3 c31 -3 32 -5 32 -47
0 -47 1 -48 65 -57 15 -2 21 -13 25 -43 l5 -40 85 -3 c52 -2 87 -8 92 -15 4
-7 8 -47 8 -89 0 -84 -3 -80 65 -90 15 -2 21 -13 25 -43 5 -39 6 -40 47 -43
l43 -3 0 -45 c0 -43 -1 -44 -32 -44 -54 0 -59 -9 -56 -86 l3 -69 93 -3 93 -3
-3 -42 -3 -42 -70 -3 c-113 -4 -117 -6 -113 -55 l3 -42 174 -3 c119 -2 178 1
187 9 9 8 14 34 14 79 0 102 2 100 -101 100 l-89 0 0 44 0 45 43 3 42 3 3 77
3 77 77 3 77 3 0 40 c0 33 -4 40 -25 45 -22 5 -25 11 -25 50 l0 45 115 0 115
0 5 -80 c3 -44 4 -85 2 -92 -2 -7 -22 -13 -45 -15 l-42 -3 -3 -69 c-2 -49 1
-72 10 -77 7 -5 93 -9 191 -9 l178 0 -3 -42 c-3 -42 -4 -43 -43 -46 -22 -2
-43 -9 -47 -15 -13 -20 -9 -154 5 -165 6 -6 28 -12 47 -14 l35 -3 3 -87 c3
-89 6 -96 46 -89 4 1 17 -1 28 -4 16 -6 19 -14 16 -48 -3 -42 -3 -42 -43 -42
l-40 0 -3 47 c-3 51 -5 52 -67 39 -26 -5 -31 -11 -35 -46 l-5 -40 -85 0 -85 0
-6 39 c-7 41 -24 59 -50 51 -34 -11 -49 5 -49 51 l0 43 93 3 92 3 0 135 0 135
-42 3 c-49 4 -47 8 -44 -99 1 -75 -6 -86 -59 -91 -33 -3 -35 -5 -38 -45 -3
-42 -3 -42 -45 -45 -41 -3 -42 -4 -45 -42 -4 -46 10 -59 56 -51 l33 6 -3 -48
-3 -48 -42 -3 -43 -3 0 -140 0 -139 -30 0 c-27 0 -30 -3 -30 -30 0 -27 3 -30
30 -30 28 0 30 -2 30 -38 0 -41 -14 -62 -41 -62 -22 0 -25 -14 -21 -106 l4
-74 73 0 74 0 3 43 c3 41 4 42 42 47 45 6 62 26 52 63 -5 23 -12 27 -40 27
-40 0 -53 14 -58 60 -3 33 -5 35 -45 38 -40 3 -43 5 -43 33 l0 29 83 0 c86 0
107 -8 107 -42 0 -13 8 -18 29 -18 50 0 61 -9 61 -50 0 -46 8 -50 99 -50 78 0
91 9 91 62 l0 39 88 -3 87 -3 0 -45 0 -45 -40 -5 -40 -5 -3 -87 -3 -88 46 0
c43 0 45 1 45 29 0 52 8 61 56 61 l44 0 0 -45 0 -45 46 0 45 0 -3 43 c-3 42
-3 42 -45 45 l-43 3 0 45 c0 43 1 44 33 44 48 0 59 12 55 56 -3 38 -4 39 -45
42 l-42 3 -3 72 -3 72 -42 3 c-45 3 -45 3 -55 -63 -3 -16 -11 -20 -43 -20 -39
0 -40 1 -45 40 -5 39 -6 40 -47 43 l-42 3 -3 -73 -3 -73 -45 0 c-41 0 -45 2
-48 27 -3 24 -8 27 -45 30 -42 3 -42 3 -45 46 -3 41 -2 42 27 42 48 0 61 9 61
45 0 18 6 38 14 44 9 8 87 11 262 9 l249 -3 3 -41 c3 -39 1 -42 -28 -53 -28
-9 -31 -14 -28 -48 l3 -38 120 -5 120 -5 3 -65 c4 -75 14 -92 56 -88 l31 3 3
123 3 122 49 0 49 0 3 -43 c3 -42 3 -42 43 -42 40 0 40 0 43 42 l3 43 -45 0
-46 0 0 95 0 95 45 0 44 0 3 -92 3 -93 70 -3 c106 -5 115 0 115 54 l0 45 43
-3 42 -3 5 -90 5 -90 75 0 75 0 3 43 3 42 45 0 c42 0 44 -1 44 -29 0 -50 9
-61 50 -61 41 0 50 11 50 61 0 26 3 29 33 29 48 0 59 12 55 56 -3 38 -4 39
-45 42 l-43 3 0 45 0 44 90 0 90 0 0 -32 c0 -49 12 -60 56 -56 l39 3 3 88 3
87 44 0 44 0 3 -87 3 -88 35 -3 c19 -2 40 -9 45 -16 6 -7 9 -50 7 -95 l-4 -82
-41 3 c-42 3 -42 3 -45 46 l-3 43 -92 -3 -92 -3 -3 -49 c-5 -79 3 -96 42 -96
18 0 38 -6 44 -13 6 -7 12 -49 14 -92 l3 -80 40 -5 c39 -5 40 -6 40 -45 l0
-40 -84 -3 c-93 -3 -101 1 -101 56 l0 32 -89 0 -90 0 -3 -42 c-3 -41 -5 -43
-38 -46 -45 -5 -60 -18 -60 -52 0 -40 17 -49 105 -52 l80 -3 3 -137 3 -138
-46 0 -45 0 0 -85 c0 -81 -1 -86 -25 -97 -41 -18 -73 2 -77 49 -3 37 -4 38
-43 38 -39 0 -40 -1 -43 -37 -2 -20 -9 -41 -15 -47 -7 -5 -42 -11 -77 -13 -59
-3 -65 -5 -70 -28 -5 -21 -12 -25 -47 -28 -39 -3 -42 -1 -45 25 -3 25 -7 28
-46 31 -42 3 -43 2 -40 -25 3 -25 7 -28 46 -31 l43 -3 -3 -42 c-3 -41 -4 -42
-43 -47 l-40 -5 0 -90 0 -90 40 -5 c39 -5 40 -6 40 -45 l0 -40 -80 -3 c-88 -3
-105 -12 -105 -51 0 -36 17 -51 56 -51 35 0 44 -13 44 -61 0 -28 2 -29 45 -29
l45 0 0 -45 c0 -43 -1 -45 -29 -45 -48 0 -61 -9 -61 -44 0 -44 -10 -54 -55
-58 -39 -3 -40 -4 -43 -46 l-3 -43 48 3 48 3 3 42 3 43 45 0 44 0 0 -45 0 -45
45 0 45 0 0 45 0 45 -45 0 -45 0 0 50 0 50 44 0 45 0 3 42 3 43 75 5 75 5 5
40 c5 39 6 40 48 43 41 3 42 2 42 -27 0 -50 9 -61 50 -61 41 0 50 11 50 61 l0
30 138 -3 137 -3 3 -42 3 -43 -44 0 c-49 0 -57 -9 -57 -61 0 -26 -3 -29 -32
-29 -49 0 -60 -12 -56 -56 3 -38 4 -39 44 -42 l41 -3 -5 -45 -5 -44 63 0 63 0
-5 45 -6 45 43 0 43 0 -6 -45 -5 -45 63 0 63 0 -5 45 c-5 44 -5 45 22 45 49 0
60 9 60 51 0 33 4 40 24 45 14 3 34 3 45 -1 19 -6 21 -14 21 -96 l0 -89 30 0
c24 0 30 5 32 23 0 12 2 27 3 32 2 6 3 16 4 23 1 9 36 12 142 12 l141 0 -2
-33 c-3 -56 -3 -57 46 -57 l45 0 -3 43 c-3 42 -3 42 -45 45 l-43 3 0 95 0 94
45 0 45 0 0 -45 0 -45 45 0 45 0 0 45 0 46 93 -3 92 -3 5 -40 5 -40 90 0 90 0
3 42 c3 37 6 42 30 45 24 3 27 8 30 45 3 42 3 42 45 45 l42 3 0 45 c0 48 -12
58 -61 46 -21 -6 -24 -12 -24 -51 0 -43 -1 -45 -30 -45 l-30 0 0 95 0 95 125
0 125 0 0 -45 0 -45 45 0 45 0 0 -44 c0 -48 -9 -56 -61 -56 -29 0 -30 -1 -27
-42 l3 -43 85 -3 c92 -3 100 -8 100 -59 0 -31 2 -33 34 -33 40 0 53 -13 58
-60 l3 -35 85 -3 c92 -3 100 -8 100 -59 0 -32 1 -33 45 -33 l45 0 0 90 c0 103
6 98 -115 102 l-70 3 -3 183 -2 182 -90 0 c-64 0 -90 -4 -92 -12 -1 -7 -2 -26
-2 -43 -1 -29 -3 -30 -48 -33 l-48 -3 0 45 0 45 48 3 47 3 3 46 3 46 -39 -2
c-54 -3 -62 -10 -62 -56 l0 -39 -45 0 -45 0 0 39 c0 22 -4 42 -8 45 -5 3 -39
6 -78 7 -102 3 -104 4 -104 55 l0 44 45 0 c43 0 45 1 45 29 0 58 4 61 100 61
l89 0 3 -42 c3 -42 4 -43 40 -46 44 -4 55 -16 60 -62 3 -31 7 -35 34 -38 37
-4 51 11 56 58 3 33 5 35 45 38 l42 3 3 -42 c4 -51 24 -68 65 -53 20 7 29 17
31 37 5 39 -14 57 -60 57 l-39 0 3 43 3 42 170 5 170 5 3 27 c3 26 7 28 48 28
44 0 45 -1 42 -27 -3 -25 -7 -28 -45 -31 l-43 -3 0 -85 0 -85 -35 -15 c-32
-13 -35 -18 -35 -54 0 -39 0 -39 -42 -42 -43 -3 -43 -3 -46 -45 -3 -42 -3 -42
-45 -45 -42 -3 -42 -3 -45 -45 -4 -51 -2 -52 143 -56 88 -2 100 -4 103 -20 7
-38 -7 -67 -33 -67 -42 0 -50 -82 -8 -88 31 -5 45 -26 41 -64 -3 -28 -8 -34
-33 -38 -27 -5 -30 -9 -33 -48 l-3 -43 33 3 c31 3 33 5 36 45 l3 42 87 3 87 3
3 70 c4 119 -1 114 100 117 l87 3 5 40 c5 38 7 40 45 45 37 5 40 7 43 40 6 58
11 60 158 60 l134 0 0 33 c0 51 -8 56 -100 59 l-85 3 -3 42 -3 42 138 3 138 3
0 45 0 45 -137 3 -138 3 0 44 0 45 83 0 c51 0 88 5 95 12 7 7 12 40 12 80 l0
68 45 0 46 0 -3 137 -3 138 -40 0 c-32 0 -40 -4 -43 -20 -9 -64 -10 -65 -57
-65 l-44 0 -3 43 -3 42 -90 5 -90 5 -3 43 -3 43 -42 -3 c-42 -3 -42 -3 -45
-45 -3 -42 -3 -42 -45 -45 -42 -3 -42 -3 -45 -45 l-3 -43 45 0 46 0 0 45 0 45
45 0 c44 0 45 -1 45 -32 0 -54 11 -61 84 -59 97 3 106 -2 106 -55 l0 -44 -89
0 c-103 0 -101 2 -101 -100 0 -75 4 -81 60 -90 29 -4 36 -10 38 -33 l3 -28
-93 3 -93 3 -3 27 -3 28 -107 1 c-59 1 -111 1 -116 0 -6 -1 -20 0 -33 4 -23 5
-24 8 -21 93 l3 87 40 5 c38 5 40 7 43 44 2 24 -2 42 -10 47 -7 5 -48 9 -90 9
l-78 0 0 29 c0 47 -10 61 -41 61 -28 0 -29 2 -29 45 l0 46 78 -3 77 -3 5 -40
c5 -39 6 -40 48 -43 l42 -3 0 84 c0 94 5 103 60 109 33 3 35 5 38 46 l3 42 44
0 44 0 3 -42 3 -43 90 0 90 0 5 40 c5 39 6 40 48 43 l42 3 0 -84 c0 -60 4 -88
14 -96 9 -8 43 -11 93 -9 l78 3 0 45 0 45 -42 3 c-42 3 -42 3 -45 45 l-3 42
-47 3 -48 3 0 44 0 44 48 3 47 3 3 48 3 47 45 0 44 0 0 75 0 75 -45 0 -45 0 0
-75 0 -75 -49 0 c-47 0 -50 2 -53 27 -3 28 -3 28 -90 31 -83 3 -88 4 -94 27
-3 13 -3 33 1 44 6 19 15 21 143 23 l137 3 3 92 3 92 42 3 42 3 0 90 0 90 -42
3 -43 3 0 95 0 94 45 0 45 0 0 45 0 45 -45 0 -45 0 0 44 0 45 43 3 c39 3 42 5
42 33 0 28 -3 30 -42 33 -41 3 -43 5 -43 36 0 42 -15 56 -62 56 l-38 0 0 45 0
45 39 0 c45 0 58 12 63 60 3 33 5 35 46 38 l42 3 0 44 0 44 -42 3 c-43 3 -43
3 -46 46 -3 41 -4 42 -41 42 -47 0 -61 14 -61 62 0 37 1 38 38 38 47 0 62 -14
62 -57 0 -26 5 -34 24 -39 59 -14 61 -11 64 137 3 135 2 137 -20 143 -13 3
-33 6 -46 6 -21 0 -23 4 -20 43 3 42 3 42 46 45 39 3 42 5 42 32 l0 29 -92 3
-93 3 -3 70 c-5 106 0 117 51 113 42 -3 42 -3 45 -45 3 -40 5 -43 38 -49 45
-8 56 3 52 52 -3 38 -4 39 -45 42 l-43 3 0 44 0 44 43 3 42 3 0 45 0 45 -42 3
-43 3 0 45 0 44 45 0 45 0 0 44 0 45 -42 3 -43 3 -3 92 -3 92 43 3 c43 3 43 3
46 46 3 35 0 42 -15 43 -10 1 -25 3 -33 4 -8 1 -21 3 -27 4 -10 1 -13 30 -13
109 0 59 -4 113 -9 120 -5 8 -23 12 -47 10 l-39 -3 -3 -87 -3 -88 -44 0 -44 0
-3 88 -3 87 -39 3 c-42 4 -59 -11 -50 -41 9 -28 -14 -47 -57 -47 l-39 0 0 45
0 45 -45 0 -44 0 -3 143 -3 142 -40 3 c-22 2 -43 9 -47 15 -4 7 -8 47 -8 90
l0 77 -90 0 -90 0 0 -29 c0 -44 -10 -61 -35 -61 -25 0 -35 -17 -35 -61 0 -24
4 -29 25 -29 28 0 45 -25 45 -69 0 -26 -4 -31 -24 -31 -30 0 -44 17 -48 60 -3
36 -5 36 -60 39 l-28 1 0 89 0 90 43 3 42 3 0 45 0 45 -42 3 c-42 3 -42 3 -45
45 -3 42 -3 42 -45 45 -37 3 -42 6 -45 30 -3 25 -7 27 -48 27 -41 0 -45 -2
-45 -25 0 -23 4 -25 48 -28 l47 -3 0 -45 0 -44 -38 0 c-45 0 -62 -14 -62 -50
0 -36 17 -50 62 -50 l38 0 0 -90 c0 -98 -2 -95 63 -90 28 2 28 1 25 -47 l-3
-48 -92 -3 -93 -3 0 45 c0 40 -3 46 -24 52 -48 12 -61 2 -64 -49 l-3 -47 -45
0 -44 0 0 44 c0 46 11 56 68 56 l22 0 0 494 0 494 78 4 c96 5 110 -2 114 -50
3 -36 4 -37 46 -40 l42 -3 0 -185 0 -184 45 0 45 0 0 185 0 185 -45 0 -45 0 0
45 c0 44 1 45 33 45 48 0 59 12 55 56 -3 37 -5 39 -43 44 -39 5 -40 6 -40 45
l0 40 120 5 120 5 3 28 3 27 -170 0 -171 0 0 -62 c0 -80 -7 -90 -56 -86 l-39
3 -3 73 -3 72 -139 0 c-128 0 -140 -2 -140 -18 0 -27 20 -42 56 -42 30 0 33
-3 37 -37 9 -59 2 -222 -8 -232 -6 -5 -26 -11 -45 -13 -34 -3 -35 -5 -35 -43
0 -39 1 -40 38 -43 30 -3 40 -9 47 -28 11 -28 13 -175 4 -223 -6 -27 -11 -31
-39 -31 -44 0 -53 -15 -57 -90 l-3 -65 -137 -3 -138 -3 0 31 c0 28 2 30 39 30
22 0 42 4 45 9 3 4 6 90 7 189 l1 181 46 3 47 3 0 40 0 40 -49 3 -48 3 5 39
c3 24 0 43 -7 48 -9 7 -44 9 -79 3 -5 0 -7 -20 -5 -43 3 -43 3 -43 46 -46 l42
-3 0 -45 c0 -42 -1 -44 -29 -44 -63 0 -61 5 -61 -196 0 -152 -2 -184 -14 -184
-33 0 -46 13 -46 45 0 18 -6 37 -13 43 -7 6 -49 12 -92 14 l-80 3 -3 88 -3 87
46 0 c44 0 45 -1 45 -32 0 -49 12 -60 56 -56 38 3 39 4 39 43 l0 40 -47 3 -48
3 0 79 c0 102 3 110 50 110 40 0 50 11 50 55 0 14 -8 28 -17 33 -15 7 -90 9
-155 3 -16 -1 -18 -15 -18 -141 l0 -140 -45 0 -46 0 3 -137 3 -138 40 -5 c32
-4 40 -10 45 -30 6 -25 7 -25 127 -28 l122 -3 3 -42 c3 -41 4 -42 43 -47 l40
-5 3 -70 c4 -113 6 -117 55 -113 42 3 42 3 45 45 3 42 3 42 45 45 40 3 42 5
45 38 5 45 18 60 53 60 37 0 49 -23 44 -91 -2 -30 -4 -64 -4 -76 -1 -18 -8
-22 -43 -25 l-43 -3 -3 -92 -3 -93 -44 0 -45 0 0 39 c0 21 -6 43 -13 49 -7 6
-49 11 -94 11 l-82 0 -3 -47 c-3 -43 -5 -47 -30 -50 -27 -3 -28 -2 -28 42 0
25 5 47 10 47 6 1 15 3 20 4 6 1 15 3 20 4 6 0 10 37 10 87 l0 85 -30 10 c-25
9 -30 16 -30 43 0 18 -5 37 -12 44 -14 14 -146 16 -166 3 -9 -5 -12 -31 -10
-92 l3 -84 40 -5 40 -5 5 -90 5 -90 48 -3 48 -3 -3 -42 c-3 -41 -4 -42 -42
-45 -44 -4 -56 7 -56 56 l0 32 -90 0 -90 0 0 -29 c0 -50 -9 -61 -50 -61 -41 0
-50 11 -50 61 0 28 -2 29 -45 29 l-45 0 0 95 0 94 93 3 92 3 0 40 0 40 -90 5
-90 5 -5 45 c-5 45 -5 45 -47 48 l-43 3 0 75 0 74 33 0 c41 0 57 15 57 56 0
35 13 44 61 44 l29 0 0 89 0 90 48 3 c45 3 47 4 50 36 4 44 -12 62 -59 62
l-39 0 0 45 0 45 39 0 c45 0 58 12 63 60 2 27 8 35 23 36 70 3 65 -5 65 94 l0
89 123 3 122 3 3 28 3 27 -125 0 -126 0 0 -30 0 -30 -124 0 c-68 0 -131 3
-140 6 -9 3 -16 17 -16 30 l0 24 -140 0 -141 0 3 -72 3 -73 135 -5 135 -5 3
-40 c4 -45 14 -55 60 -55 31 0 32 -1 32 -45 l0 -45 -44 0 -45 0 -3 48 c-3 47
-3 47 -38 45 -19 -1 -39 -2 -43 -2 -5 -1 -7 -20 -5 -43 3 -43 3 -43 46 -46
l42 -3 0 -45 0 -44 45 0 45 0 0 -50 0 -50 -44 0 -45 0 -3 -42 c-3 -43 -3 -43
-45 -46 l-43 -3 0 83 c0 96 -7 108 -62 108 l-38 0 0 45 0 45 -83 0 c-93 0
-107 7 -107 57 0 18 -4 34 -10 34 -5 1 -14 3 -20 4 -5 1 -14 3 -20 4 -5 0 -10
21 -10 46 0 43 1 45 29 45 24 0 29 5 33 28 7 48 -1 63 -30 60 -24 -3 -27 -8
-30 -45 l-3 -43 -44 0 -44 0 -3 43 c-3 41 -4 42 -42 45 -44 4 -56 -8 -51 -47
2 -14 4 -29 4 -33 1 -5 21 -8 46 -8 l45 0 0 -44 0 -44 -43 -6 c-24 -4 -50 -4
-58 -2 -8 3 -30 2 -49 -2 -32 -7 -35 -12 -40 -47 l-5 -40 -227 -3 -228 -2 -6
-24 c-11 -45 -2 -61 38 -64 20 -2 41 -9 48 -16 7 -9 10 -58 8 -137 l-3 -124
-45 0 -45 0 -3 88 -3 87 -44 0 -44 0 -3 -42 c-3 -39 -6 -43 -30 -46 -27 -3
-28 -2 -28 43 l0 46 -47 -3 c-51 -3 -61 -16 -49 -64 6 -21 12 -24 51 -24 l44
0 3 -92 c3 -89 4 -92 28 -98 18 -4 26 -14 28 -33 l3 -27 -75 0 c-72 0 -76 -1
-82 -24 -11 -44 -2 -61 36 -64 48 -5 60 -18 60 -63 l0 -39 -82 0 c-46 0 -88 4
-95 8 -7 5 -13 40 -15 92 l-3 85 -90 5 c-88 5 -90 6 -90 30 0 22 5 25 37 28
45 4 60 21 56 64 -3 31 -6 33 -48 38 l-45 5 -3 88 -3 87 -44 0 -44 0 -3 -42
-3 -43 -47 -3 -48 -3 0 83 c0 52 5 89 12 96 7 7 44 12 94 12 l83 0 3 43 3 42
137 3 137 3 3 -43 c3 -43 3 -43 48 -48 l45 -5 5 -45 c4 -40 8 -45 30 -45 21 0
26 5 28 33 4 38 -12 62 -39 62 -16 0 -19 8 -19 44 0 41 2 45 28 48 23 2 28 8
30 36 4 38 -12 62 -40 62 -16 0 -19 6 -16 43 l3 42 73 3 72 3 0 44 0 45 -113
0 c-116 0 -137 6 -137 41 0 21 -12 26 -56 21 l-34 -4 0 -74 0 -74 -40 0 c-34
0 -42 -4 -50 -26 -6 -14 -8 -29 -6 -33 16 -25 -52 -46 -84 -26 -5 3 -10 44
-10 91 l0 84 -45 0 c-43 0 -45 1 -45 29 0 16 -4 31 -10 33 -5 2 -68 2 -140 0
l-130 -3 0 -75 0 -74 45 0 45 0 0 -45 c0 -52 3 -53 115 -57 75 -3 84 -11 71
-63 -6 -23 -11 -24 -94 -27 l-87 -3 -3 -42 -3 -43 -45 0 -44 0 0 85 c0 74 -2
86 -20 95 -11 6 -25 8 -30 5 -5 -3 -19 -1 -30 5 -18 9 -20 21 -20 96 l0 85
-27 -3 c-24 -3 -29 -8 -33 -43 -5 -38 -7 -40 -45 -45 -39 -5 -40 -6 -43 -47
-3 -37 0 -43 21 -48 13 -4 27 -5 33 -4 26 5 33 -4 36 -43 3 -39 6 -43 31 -46
l28 -3 -3 -137 -3 -137 -25 0 c-22 0 -25 5 -28 43 l-3 42 -44 0 -44 0 -3 93
-3 92 -92 3 -93 3 0 44 c0 44 1 45 33 45 48 0 59 12 55 56 -3 37 -5 39 -43 44
l-40 5 -3 71 -3 72 -33 4 c-19 2 -39 2 -45 0z m799 -91 c0 -58 -4 -61 -101
-61 l-89 0 0 38 c0 21 3 42 7 45 3 4 46 7 95 7 l88 0 0 -29z m368 -107 c3 -40
2 -42 -30 -46 -50 -8 -58 -1 -58 49 l0 44 43 -3 c42 -3 42 -3 45 -44z m1626
30 c9 -22 7 -72 -2 -78 -4 -2 -27 -2 -50 1 -39 5 -42 8 -42 37 0 18 5 37 12
44 18 18 75 15 82 -4z m-626 -126 c-3 -43 -3 -43 -45 -46 l-43 -3 0 -140 0
-140 43 3 42 3 5 84 c4 65 9 86 22 95 28 17 38 -4 39 -80 1 -100 3 -104 54
-104 l44 0 3 93 3 92 43 3 43 3 -3 -93 -3 -93 -42 -3 -43 -3 0 -45 0 -44 83 0
c95 0 107 -7 107 -61 l0 -38 -47 -3 -48 -3 0 -70 0 -70 47 -3 47 -3 3 -47 3
-47 43 -3 42 -3 0 -45 0 -44 -45 0 -44 0 -3 -92 -3 -93 -90 0 -90 0 -3 35 c-4
43 -18 60 -48 60 -50 0 -55 -17 -52 -203 l3 -172 45 0 45 0 5 90 5 90 40 0 40
0 3 -137 3 -138 -91 0 c-65 0 -90 4 -91 13 -1 6 -2 26 -3 42 l-1 30 -77 3 -78
3 0 -46 0 -45 75 0 c53 0 75 -4 76 -12 1 -7 2 -17 4 -23 1 -5 3 -16 3 -22 2
-9 25 -13 80 -13 87 0 99 5 103 40 4 22 9 25 49 25 42 0 45 -2 48 -27 4 -34
24 -40 112 -36 l65 3 3 33 3 32 -90 0 -91 0 0 185 0 185 45 0 45 0 0 -90 c0
-103 -6 -98 115 -102 l70 -3 3 -42 3 -43 44 0 44 0 3 43 c3 42 3 42 46 45 l42
3 0 -45 0 -46 -45 0 -45 0 0 -45 0 -46 93 3 92 3 5 40 c4 32 10 40 30 45 21 5
25 12 28 48 3 39 5 42 32 42 56 0 60 6 60 85 0 99 3 105 56 105 l44 0 0 -45 0
-45 45 0 45 0 0 45 0 45 51 0 52 0 -7 -31 c-3 -17 -6 -38 -6 -45 0 -10 -13
-14 -45 -14 l-45 0 0 -44 c0 -48 -9 -56 -61 -56 l-29 0 0 -120 0 -120 -26 -6
c-14 -4 -51 -4 -82 -2 -77 7 -82 4 -82 -48 l0 -44 45 0 45 0 0 -172 c0 -95 4
-179 9 -186 5 -8 23 -12 47 -10 37 3 39 5 44 43 l5 40 86 3 87 3 4 -33 c7 -47
0 -58 -36 -58 -42 0 -56 -16 -56 -62 l0 -38 44 0 c42 0 44 -2 49 -32 7 -51 0
-59 -47 -56 -41 3 -41 3 -44 46 l-3 42 -208 0 c-221 0 -231 2 -231 50 0 40 18
50 93 50 l68 0 -3 43 -3 42 -167 3 -168 2 0 -45 0 -45 -187 -2 -188 -3 -3 -47
-3 -48 44 0 c49 0 57 -9 57 -61 l0 -29 90 0 90 0 0 29 c0 52 8 61 56 61 l43 0
3 47 c3 52 16 61 64 49 22 -6 25 -11 22 -49 -3 -42 -3 -42 -45 -45 l-43 -3 0
-45 0 -44 134 0 c146 0 146 0 146 -60 0 -23 5 -29 31 -34 29 -5 30 -8 27 -48
-3 -39 -6 -43 -31 -46 -24 -3 -28 -7 -25 -30 3 -26 5 -27 76 -30 l72 -3 0 114
c0 125 5 137 56 137 35 0 44 -13 44 -61 0 -20 5 -29 18 -31 9 0 22 -2 27 -3 6
-2 18 -3 28 -4 15 -1 17 -12 17 -76 l0 -76 138 3 137 3 0 25 c0 24 -2 25 -82
28 -52 2 -85 8 -92 16 -13 16 -3 75 13 77 11 2 70 5 134 8 31 1 32 2 32 45 l0
45 -42 3 -43 3 -5 180 -5 180 -40 5 c-39 5 -40 6 -45 50 l-5 45 -45 0 -45 0
-3 -42 c-3 -36 -7 -44 -27 -49 -44 -11 -65 3 -65 46 0 41 11 50 61 50 29 0 30
1 27 43 -3 41 -4 42 -43 47 -39 5 -40 6 -43 48 -3 42 -3 42 30 42 50 0 57 9
60 85 l3 70 138 3 137 3 0 94 0 94 -42 3 c-43 3 -43 3 -46 46 l-3 42 45 0 46
0 0 -45 0 -45 38 0 c55 0 62 -12 62 -107 l0 -83 45 0 44 0 3 93 3 92 70 3 c76
3 85 10 85 60 0 33 0 33 43 30 41 -3 42 -4 47 -43 5 -38 7 -40 45 -45 l40 -5
0 -45 0 -45 -108 -2 c-59 0 -114 -4 -122 -6 -7 -3 -15 -23 -17 -44 -3 -37 -4
-38 -45 -41 l-43 -3 0 -45 0 -45 123 3 122 3 5 40 c5 39 6 40 48 43 l42 3 0
45 0 44 50 0 50 0 0 -45 0 -45 45 0 45 0 0 -44 0 -45 43 -3 42 -3 3 -55 c4
-97 7 -102 55 -98 42 3 42 3 45 46 l3 42 45 0 44 0 0 -90 0 -91 -137 3 -138 3
-5 40 c-5 39 -6 40 -47 43 l-42 3 -3 -43 c-3 -42 -4 -43 -40 -46 -44 -4 -55
-16 -60 -62 -3 -33 -5 -35 -45 -38 l-42 -3 -3 -87 -3 -87 -65 -3 c-73 -3 -90
-13 -90 -51 0 -31 16 -51 41 -51 23 0 29 -20 29 -93 0 -70 -4 -77 -42 -94 -45
-20 -34 -93 13 -93 19 0 31 -23 23 -45 -4 -8 -14 -15 -23 -15 -26 0 -41 -21
-41 -57 0 -19 -5 -33 -12 -34 -7 -1 -40 -1 -73 -1 -98 0 -95 4 -95 -99 l0 -90
43 3 c41 3 42 4 47 43 5 39 6 40 48 43 l42 3 0 45 c0 49 15 63 49 44 14 -7 21
-21 21 -38 0 -34 -16 -52 -47 -52 -22 0 -23 -3 -23 -83 0 -85 8 -107 41 -107
22 0 29 -20 29 -90 0 -87 -3 -90 -70 -90 -83 0 -90 -4 -90 -56 l0 -44 125 0
125 0 0 -119 c0 -99 3 -120 16 -125 9 -3 51 -6 95 -6 77 0 79 1 79 24 0 29
-12 38 -60 46 l-35 5 -3 65 c-5 101 0 112 51 108 41 -3 42 -4 47 -43 5 -39 6
-40 45 -40 39 0 40 1 45 40 5 39 6 40 48 43 48 4 45 13 42 -131 -1 -56 3 -93
10 -102 9 -11 35 -15 96 -15 l84 0 0 35 c0 35 0 35 -46 35 l-45 0 3 43 c3 42
3 42 46 45 l42 3 0 -45 0 -45 48 -3 c45 -3 47 -4 50 -35 l3 -33 -51 0 -51 0 3
-42 c3 -43 3 -43 48 -48 45 -5 45 -5 48 -47 l3 -43 -39 0 c-46 0 -59 -12 -64
-60 l-3 -35 -137 -3 -138 -3 0 -44 0 -45 39 0 c22 0 43 -5 47 -11 3 -6 6 -43
5 -81 -2 -81 8 -98 54 -98 35 0 45 13 45 60 0 25 4 28 45 34 43 7 45 9 45 40
0 42 16 56 62 56 l38 0 0 -94 0 -95 -47 -3 -48 -3 -3 -42 -3 -43 -124 0 c-68
0 -130 -3 -139 -6 -11 -4 -16 -19 -16 -44 0 -41 -11 -50 -61 -50 -28 0 -29 -2
-29 -45 l0 -45 89 0 89 0 7 -30 7 -30 89 0 89 0 0 -50 0 -50 -89 0 c-97 0
-101 -3 -101 -61 0 -28 -2 -29 -45 -29 l-44 0 -3 92 -3 93 -40 0 -40 0 -3 -92
-3 -92 -92 -3 -92 -3 -3 -42 -3 -43 -68 0 c-78 0 -91 -9 -91 -62 l0 -38 -90 0
-90 0 0 -90 c0 -79 2 -90 18 -91 70 -4 67 -1 72 -49 l5 -45 40 0 40 0 5 45 c5
42 7 45 35 45 l30 0 3 -138 c2 -113 0 -138 -12 -143 -28 -11 -55 14 -58 54
l-3 37 -85 0 -85 0 -5 -40 c-4 -32 -10 -41 -33 -49 -39 -14 -61 2 -67 50 -5
38 -6 39 -47 42 l-43 3 0 -38 c0 -47 -14 -63 -55 -63 -25 0 -33 -6 -42 -30
-10 -27 -16 -30 -52 -30 l-41 0 0 81 0 80 -42 -3 c-42 -3 -43 -4 -46 -40 -2
-20 -9 -41 -16 -47 -9 -8 -68 -11 -172 -9 l-159 3 0 35 c0 49 -10 60 -56 60
l-39 0 0 -44 c0 -48 9 -56 61 -56 27 0 30 -3 27 -28 -3 -23 -8 -28 -43 -32
-38 -5 -40 -7 -45 -45 -5 -38 -7 -40 -45 -45 -39 -5 -40 -6 -45 -50 -4 -38 -9
-46 -29 -48 -51 -8 -70 5 -73 51 l-3 42 -87 3 -88 3 0 44 0 44 87 3 c84 3 87
4 93 28 4 19 14 26 41 30 51 9 59 17 59 61 l0 40 -137 -3 -138 -3 -5 -75 -5
-75 -33 -3 c-38 -4 -62 12 -62 39 0 17 -9 19 -85 19 -75 0 -86 2 -95 21 -6 11
-10 32 -8 47 3 24 -1 27 -29 30 -33 3 -33 3 -33 -41 0 -49 -9 -57 -61 -57 -27
0 -30 -3 -27 -27 3 -27 5 -28 76 -31 l72 -3 0 -44 c0 -37 -3 -45 -18 -45 -27
0 -42 -20 -42 -56 0 -36 -23 -50 -65 -40 -20 5 -24 13 -27 49 -3 42 -3 42 -45
45 -32 2 -43 7 -44 20 -2 49 -11 127 -13 130 -2 2 -22 4 -44 5 -39 2 -41 1
-44 -28 l-3 -30 -78 -3 c-50 -2 -84 1 -93 9 -10 8 -14 33 -14 80 l0 68 -42 3
c-43 3 -43 3 -46 46 l-3 42 45 0 46 0 0 -45 0 -45 50 0 50 0 0 185 0 185 45 0
45 0 0 -84 c0 -55 4 -87 13 -93 6 -5 48 -6 92 -3 l80 5 5 40 c5 39 6 40 45 40
39 0 40 -1 45 -40 4 -35 9 -40 33 -43 15 -2 27 0 27 5 1 4 2 85 4 178 2 94 4
173 5 178 0 4 62 7 136 7 155 0 143 -9 147 115 3 75 11 84 63 71 23 -6 24 -11
27 -94 l3 -87 93 -3 92 -3 0 96 0 95 -44 0 c-49 0 -61 9 -51 40 5 16 15 20 51
20 l44 0 0 45 0 45 -189 0 -190 0 -3 -42 c-3 -43 -3 -43 -43 -43 -40 0 -40 0
-43 43 -3 42 -3 42 -42 42 -46 0 -65 24 -55 71 6 25 11 29 39 29 42 0 56 -16
56 -62 l0 -38 45 0 45 0 0 94 0 95 -42 3 c-43 3 -43 3 -46 46 -3 40 -5 42 -35
42 -45 0 -59 12 -66 56 l-6 39 -70 0 -70 0 -5 -90 -5 -90 -33 -3 c-50 -5 -61
9 -55 76 3 31 0 69 -6 85 -10 27 -12 27 -96 27 l-85 0 0 45 0 45 -44 0 c-53 0
-56 -6 -56 -105 l0 -72 -37 -7 c-49 -8 -107 -8 -127 0 -11 4 -16 19 -16 50 l0
44 -95 0 -95 0 0 -51 0 -51 33 6 c45 8 59 -4 55 -50 -3 -38 -4 -39 -45 -42
l-43 -3 0 -95 c0 -98 -3 -104 -44 -88 -13 5 -16 23 -16 95 l0 89 -44 0 c-47 0
-56 9 -56 60 0 26 -4 29 -45 36 l-45 6 0 89 0 89 -40 0 c-34 0 -42 4 -50 26
-6 14 -8 29 -5 34 8 13 -24 40 -48 40 -43 0 -48 -12 -45 -101 l3 -84 35 -3
c47 -4 60 -25 60 -98 0 -87 -4 -94 -56 -94 l-44 0 0 44 c0 48 -14 58 -64 49
-23 -5 -26 -10 -26 -49 l0 -44 -44 0 c-53 0 -56 -5 -56 -111 l0 -79 -34 0
c-18 0 -38 6 -45 13 -6 8 -12 80 -13 188 l-3 174 -42 3 -43 3 0 44 0 44 43 3
42 3 3 47 3 48 -45 0 -46 0 0 45 0 45 -45 0 c-52 0 -53 -3 -57 -115 -3 -68 -4
-70 -30 -73 -24 -3 -27 -8 -30 -45 l-3 -42 -84 -3 c-93 -3 -101 1 -101 56 l0
32 -90 0 -90 0 0 95 0 95 45 0 45 0 0 45 0 45 -45 0 c-43 0 -45 1 -45 29 0 31
14 41 60 41 27 0 29 3 32 43 3 42 3 42 45 45 l42 3 3 -43 c3 -43 3 -43 48 -48
40 -4 45 -8 48 -32 6 -48 92 -52 92 -4 0 26 -17 36 -61 36 -28 0 -29 2 -29 44
l0 45 -47 3 -48 3 -3 43 -3 42 -90 0 -89 0 0 -32 c0 -49 -12 -60 -56 -56 l-39
3 -3 137 -3 137 -42 3 c-42 3 -42 3 -45 46 -3 44 -5 45 -60 42 -31 -1 -32 0
-32 37 0 22 -5 44 -12 51 -7 7 -44 12 -94 12 l-83 0 -3 42 c-3 36 -7 43 -28
48 -19 5 -26 14 -31 43 -7 45 -4 42 -54 54 -38 8 -40 10 -40 48 l0 40 75 5 75
5 5 75 c5 74 5 75 33 74 60 -2 57 5 57 -119 0 -123 -1 -120 54 -129 36 -6 38
-8 45 -53 l6 -38 88 -3 87 -3 0 -44 0 -45 38 0 c45 0 62 -14 62 -52 0 -29 -26
-51 -58 -47 -38 3 -42 -1 -42 -46 l0 -46 93 3 92 3 3 43 3 43 92 -3 c99 -3
107 -8 93 -64 -5 -20 -12 -24 -46 -24 -43 0 -57 -20 -46 -66 5 -19 13 -24 39
-24 50 0 57 -14 57 -107 l0 -83 75 0 75 0 0 45 c0 37 -3 45 -19 45 -33 0 -42
24 -39 106 3 74 4 78 28 84 20 5 26 13 30 45 l5 40 70 3 c112 4 115 5 115 57
l0 45 -170 0 -171 0 3 138 3 137 43 3 c40 3 43 5 40 30 -3 23 -9 28 -43 32
-37 5 -40 7 -43 40 -5 46 -16 58 -60 62 -33 3 -37 6 -40 34 -4 37 11 51 58 56
33 3 35 5 38 46 l3 42 -38 0 c-22 0 -44 5 -51 12 -14 14 -17 235 -4 255 5 7
40 13 92 15 l85 3 3 48 3 47 -89 0 c-73 0 -91 3 -96 16 -11 28 -7 152 6 160 6
4 28 6 50 6 37 -2 38 -1 38 33 0 35 0 35 -44 35 -53 0 -56 6 -56 101 0 47 4
71 13 74 6 3 62 6 122 7 l110 3 3 37 c4 52 18 59 109 56 l78 -3 3 -42 c4 -50
8 -51 117 -55 l70 -3 3 -87 3 -88 89 0 c81 0 89 -2 95 -20 7 -22 -10 -51 -29
-49 -6 1 -23 1 -38 0 l-28 -1 0 -90 0 -90 45 0 c47 0 50 -3 57 -70 3 -27 24
-36 64 -26 20 5 24 12 24 45 0 42 -11 51 -61 51 -29 0 -29 1 -29 58 0 31 -3
66 -5 77 -10 40 5 45 134 46 68 0 129 3 137 6 10 4 14 25 14 78 0 73 0 74 28
77 23 3 27 8 30 41 3 34 0 39 -27 48 -26 9 -31 16 -31 43 0 42 -16 56 -62 56
l-38 0 0 -44 c0 -53 -6 -56 -106 -56 l-74 0 0 -45 0 -45 90 0 90 0 0 -45 0
-45 -89 0 -90 0 -3 43 c-3 42 -3 42 -48 47 l-45 5 0 40 0 40 45 5 45 5 3 93 3
93 42 -3 c41 -3 42 -4 47 -43 5 -39 6 -40 48 -43 l42 -3 0 84 c0 94 5 103 60
109 l35 3 3 88 3 87 74 0 75 0 0 -44 0 -45 -42 -3 c-43 -3 -43 -3 -46 -44 l-3
-41 56 -5 c31 -3 73 -2 93 1 34 6 37 9 42 46 l5 40 88 3 87 3 0 44 0 44 -87 3
-88 3 -3 48 -3 47 -95 0 -94 0 0 45 0 45 89 0 c97 0 101 -3 101 -61 l0 -29 90
0 90 0 0 63 c0 79 7 89 56 85 31 -2 39 -7 44 -28 6 -25 6 -25 143 -28 l137 -3
0 31 c0 28 -2 30 -40 30 -33 0 -42 4 -52 25 -8 19 -8 31 0 50 10 21 19 25 52
25 l40 0 0 45 0 45 -44 0 c-26 0 -46 5 -48 13 -4 9 -3 227 1 260 1 4 21 7 46
7 l45 0 0 45 0 45 46 0 45 0 -3 -42z m-2090 -90 c-3 -42 -4 -43 -43 -48 -39
-5 -40 -6 -45 -50 l-5 -45 -45 -5 -45 -5 0 -40 0 -40 45 -5 45 -5 0 -40 c0
-38 -1 -40 -35 -43 -45 -5 -60 -18 -60 -52 0 -34 15 -47 60 -52 27 -2 35 -8
40 -28 6 -24 10 -25 88 -28 l83 -3 11 31 c10 29 13 31 52 28 37 -3 41 -6 44
-31 3 -26 6 -28 45 -25 l42 3 3 65 c2 35 8 70 14 77 7 8 35 13 79 13 l69 0 0
90 0 90 44 0 45 0 3 -42 c3 -43 3 -43 46 -46 l42 -3 0 -124 0 -124 48 -3 47
-3 3 -42 c3 -40 5 -43 32 -43 51 0 60 -9 60 -56 l0 -44 44 0 c47 0 56 -9 56
-60 0 -27 3 -29 43 -32 40 -3 42 -5 45 -37 2 -18 -1 -38 -7 -44 -6 -6 -43 -10
-83 -9 -39 1 -77 -3 -85 -9 -9 -8 -13 -38 -13 -95 l0 -84 -44 0 -45 0 -3 43
c-3 40 -5 42 -38 45 -58 6 -60 12 -60 153 l0 129 -44 0 -45 0 -3 -42 -3 -43
-92 -3 -92 -3 -3 -91 c-3 -89 -4 -92 -28 -98 -20 -5 -26 -13 -30 -45 l-5 -40
-80 -3 c-43 -2 -85 -8 -91 -13 -7 -6 -14 -27 -16 -47 -3 -36 -4 -37 -43 -37
l-40 0 -5 45 c-5 45 -5 45 -47 48 -40 3 -43 5 -43 32 0 47 -9 60 -44 60 -48 0
-56 14 -56 107 l0 83 -45 0 -45 0 0 44 0 45 -42 3 -43 3 -3 70 c-4 119 1 114
-100 117 -86 3 -87 3 -90 30 -3 25 0 27 40 30 l43 3 0 45 0 45 -42 3 -43 3 0
45 0 44 45 0 45 0 0 -45 0 -45 39 0 c43 0 50 -6 57 -48 8 -45 12 -52 38 -52
57 0 56 -3 56 196 l0 184 45 0 45 0 0 45 0 45 96 0 95 0 -3 -42z m1810 -191
l3 -138 -138 3 -138 3 -3 129 c-2 97 1 132 10 138 7 4 69 7 138 6 l125 -3 3
-138z m-1810 -4 l3 -43 44 0 44 0 3 43 3 42 48 3 c46 3 47 3 47 -27 0 -52 -8
-61 -56 -61 l-44 0 0 -45 0 -45 -45 0 -45 0 0 -44 c0 -48 -9 -56 -61 -56 -30
0 -30 1 -27 48 l3 47 43 3 42 3 0 45 0 44 -45 0 -45 0 0 46 0 45 43 -3 c42 -3
42 -3 45 -45z m-563 -183 c0 -41 -2 -45 -25 -45 -21 0 -26 5 -28 33 -5 47 4
64 30 60 20 -3 23 -9 23 -48z m4375 -250 l0 -50 -45 0 -45 0 0 43 c0 24 3 47
7 50 3 4 24 7 45 7 l38 0 0 -50z m-4620 -376 l0 -45 -47 3 c-44 3 -48 5 -51
31 -6 48 3 57 53 57 l45 0 0 -46z m808 -438 c-3 -41 -3 -41 -43 -41 -40 0 -40
0 -43 42 -3 45 6 52 61 45 26 -4 28 -7 25 -46z m-190 2 c-3 -43 -3 -43 -43
-43 -40 0 -40 0 -43 43 l-3 42 46 0 46 0 -3 -42z m-528 -93 c5 -38 7 -40 44
-43 45 -4 56 7 56 56 l0 33 73 -3 72 -3 3 -82 c2 -53 7 -85 16 -93 9 -6 45
-10 93 -8 l78 3 5 45 5 45 40 0 c39 0 40 -1 43 -39 4 -44 -7 -56 -55 -56 -32
0 -33 -1 -33 -45 l0 -45 90 0 c86 0 90 -1 96 -24 14 -56 6 -61 -93 -64 l-92
-3 -3 -92 -3 -92 -137 -3 -138 -3 0 46 c0 43 -1 45 -30 45 -27 0 -30 3 -30 33
0 45 -18 65 -60 69 l-35 3 -3 88 -3 87 -44 0 -44 0 -3 -42 -3 -43 -90 0 -90 0
-3 43 -3 42 -83 0 c-89 0 -106 8 -106 50 0 45 14 50 152 50 l128 0 0 -38 c0
-48 14 -62 62 -62 l38 0 0 44 c0 47 -9 56 -60 56 -32 0 -46 25 -36 66 6 24 8
25 94 22 l87 -3 5 -40z m5060 -190 l0 -44 138 -3 137 -3 0 -90 0 -90 -40 0
c-39 0 -40 1 -43 37 -2 20 -9 41 -16 47 -6 5 -48 11 -91 13 l-80 3 -3 43 -3
43 -42 -3 -42 -3 -3 -92 -3 -92 43 -3 43 -3 3 -87 3 -86 64 -7 c36 -4 72 -4
81 -1 31 12 44 -13 44 -85 l0 -68 43 -3 c42 -3 42 -3 45 -44 3 -41 2 -42 -31
-46 -51 -6 -57 -1 -57 48 l0 45 -92 -3 -93 -3 -5 -90 -5 -90 -78 -3 c-90 -3
-107 5 -107 53 0 34 -16 45 -68 45 -21 0 -23 4 -20 43 l3 42 90 5 c89 5 90 5
93 32 3 24 8 27 45 30 l42 3 3 48 3 47 -45 0 -46 0 0 90 0 90 -50 0 -50 0 0
-46 0 -45 -42 3 c-43 3 -43 3 -46 46 l-3 42 45 0 46 0 0 140 0 140 95 0 95 0
0 -45z m-4342 -422 l3 -93 44 0 c43 0 45 -1 45 -31 0 -29 -1 -30 -42 -27 -39
3 -43 6 -46 31 -3 25 -7 27 -46 27 -40 0 -44 -2 -49 -30 -6 -27 -10 -30 -46
-30 -42 0 -51 -11 -51 -60 0 -31 -15 -38 -62 -32 -24 4 -27 9 -30 46 -3 41 -3
41 -45 44 l-43 3 0 75 c0 74 0 74 28 76 15 1 36 1 47 0 11 -1 39 1 63 4 38 5
42 8 42 34 0 58 5 61 99 58 l86 -3 3 -92z m4130 1 c20 -6 23 -12 20 -48 -3
-41 -3 -41 -43 -41 -39 0 -40 1 -43 39 -4 51 13 64 66 50z m-4950 -256 c7 -7
12 -24 12 -38 0 -33 -17 -50 -50 -50 -14 0 -31 5 -38 12 -13 13 -17 70 -5 81
11 12 68 8 81 -5z m896 6 c13 -5 16 -23 16 -96 l0 -89 -42 3 c-42 3 -43 4 -48
43 -5 38 -7 40 -45 45 -38 5 -40 7 -43 44 -2 24 2 42 10 47 15 10 129 12 152
3z m4644 -32 c4 -44 -12 -62 -59 -62 l-39 0 0 -45 0 -45 -46 0 -45 0 3 43 c3
42 3 42 46 45 l42 3 0 44 c0 47 11 55 70 51 21 -1 26 -7 28 -34z m-6000 -104
c-3 -43 -3 -43 -45 -46 l-43 -3 0 45 0 46 46 0 45 0 -3 -42z m560 -191 l3
-138 -138 3 -138 3 -3 129 c-2 97 1 132 10 138 7 4 69 7 138 6 l125 -3 3 -138z
m5060 0 l3 -138 -138 3 -138 3 -3 124 c-1 69 0 131 2 138 4 11 35 13 138 11
l133 -3 3 -138z m-4715 11 c7 -51 -5 -58 -99 -58 l-84 0 0 45 0 45 89 0 89 0
5 -32z m4905 -60 l3 -88 29 0 c51 0 60 -8 60 -57 l0 -44 -42 3 c-43 3 -43 3
-48 48 -5 44 -6 45 -45 48 -22 2 -42 8 -46 13 -8 13 -10 129 -3 152 5 14 14
17 47 15 l42 -3 3 -87z m-5248 -233 l0 -46 -92 3 c-100 3 -108 8 -94 64 6 23
10 24 96 24 l90 0 0 -45z m435 -90 c0 -40 0 -40 -42 -43 l-43 -3 0 46 0 46 43
-3 c42 -3 42 -3 42 -43z m-537 -57 c7 -7 12 -22 12 -35 0 -20 -5 -23 -40 -23
-40 0 -60 18 -60 54 0 20 70 22 88 4z m1010 -551 c2 -10 1 -29 -2 -43 -5 -19
-13 -24 -39 -24 -40 0 -57 15 -57 50 0 36 8 41 55 38 29 -2 41 -8 43 -21z
m810 -114 l3 -43 -45 0 -46 0 0 46 0 45 43 -3 c42 -3 42 -3 45 -45z m1154 20
c7 -49 -1 -64 -30 -61 -21 2 -28 9 -30 31 -5 41 4 57 32 57 18 0 25 -6 28 -27z
m-712 -113 l0 -50 -50 0 -50 0 0 38 c0 48 14 62 62 62 l38 0 0 -50z m652 -92
c3 -38 6 -43 30 -46 20 -2 28 -10 33 -32 6 -29 6 -29 93 -32 l87 -3 3 -39 c2
-24 -2 -42 -10 -47 -7 -5 -48 -9 -90 -9 -73 0 -78 -1 -83 -23 -4 -13 -5 -27
-4 -33 5 -30 -3 -34 -76 -34 l-75 0 0 -45 c0 -43 1 -45 29 -45 50 0 61 -9 61
-50 0 -43 -21 -57 -66 -46 -21 6 -24 12 -24 51 l0 45 -44 0 c-42 0 -44 2 -49
33 -6 43 7 57 54 57 l39 0 0 45 c0 44 1 45 33 45 48 0 59 12 55 56 -3 38 -4
39 -45 42 l-43 3 0 75 0 74 44 0 45 0 3 -42z m1808 -623 l0 -45 -45 0 -45 0 0
38 c0 48 4 52 52 52 l38 0 0 -45z m814 -161 c3 -9 6 -29 6 -45 0 -30 -1 -30
-47 -27 l-48 3 -3 43 -3 42 44 0 c32 0 47 -5 51 -16z m-3466 -281 l3 -43 44 0
44 0 3 43 c3 42 3 42 45 45 38 3 43 0 49 -22 11 -47 2 -61 -46 -66 l-45 -5 0
-45 0 -45 45 -5 c48 -5 57 -19 46 -66 -5 -20 -12 -24 -45 -24 -42 0 -51 11
-51 61 0 25 -4 29 -29 29 -52 0 -61 8 -61 56 0 42 -1 44 -30 44 -29 0 -30 2
-30 46 0 44 1 45 28 42 24 -3 27 -7 30 -45z m1810 0 c3 -42 2 -43 -27 -43
l-31 0 0 -95 0 -95 -44 0 c-48 0 -56 -9 -56 -61 l0 -29 -90 0 -90 0 0 -39 c0
-47 -18 -63 -62 -59 -29 3 -33 7 -36 36 -4 44 12 62 59 62 l39 0 0 90 0 90 74
0 c95 0 106 4 106 44 0 42 16 56 62 56 37 0 38 1 38 38 0 45 6 54 35 50 16 -2
21 -12 23 -45z m-1250 -186 l3 -138 -138 3 -138 3 -3 124 c-1 69 0 131 2 138
4 11 35 13 138 11 l133 -3 3 -138z m530 103 c5 -46 18 -60 57 -60 41 0 45 -10
45 -106 l0 -74 29 0 c52 0 61 -8 61 -56 l0 -44 45 0 45 0 0 -45 0 -45 -45 0
-45 0 0 45 0 45 -45 0 -45 0 0 -44 0 -45 -47 -3 -48 -3 -3 -43 -3 -42 -89 0
c-98 0 -92 -4 -102 65 -3 19 -12 20 -121 23 -113 3 -117 3 -123 26 -4 18 0
236 5 254 1 2 20 2 44 0 41 -3 42 -4 47 -43 5 -39 6 -40 47 -43 l42 -3 3 43
c3 36 7 43 28 48 24 6 25 10 28 85 1 44 4 86 7 93 3 9 28 12 92 10 l88 -3 3
-35z m2000 -102 l3 -138 -141 0 -140 0 0 133 c0 74 3 137 7 141 4 3 66 5 137
4 l131 -3 3 -137z m-1720 0 c-3 -43 -3 -43 -43 -43 -40 0 -40 0 -43 43 l-3 42
46 0 46 0 -3 -42z m1348 -72 c9 -39 1 -61 -25 -64 -29 -4 -41 12 -41 56 0 29
3 32 30 32 23 0 31 -5 36 -24z m-452 -72 c11 -4 16 -19 16 -45 0 -33 -4 -40
-24 -45 -42 -10 -60 -1 -68 36 -4 19 -5 41 -3 48 5 13 52 16 79 6z m-2424
-139 l0 -45 -45 0 -45 0 0 45 0 45 45 0 45 0 0 -45z m1910 0 l0 -45 -44 0
c-49 0 -64 18 -52 66 6 21 12 24 51 24 l45 0 0 -45z m-1192 -92 l3 -43 -45 0
-46 0 0 46 0 45 43 -3 c42 -3 42 -3 45 -45z"/>
<path d="M3480 5550 l0 -50 68 0 c37 0 73 5 78 10 6 6 8 27 5 48 l-6 37 -73 3
-72 3 0 -51z"/>
<path d="M3480 5395 c0 -43 1 -45 29 -45 48 0 61 -9 61 -45 0 -36 21 -60 45
-51 12 4 15 24 15 96 l0 90 -75 0 -75 0 0 -45z"/>
<path d="M3100 5301 l0 -50 48 -3 47 -3 0 -40 0 -40 -47 -3 -48 -3 0 -45 c0
-43 -1 -44 -32 -44 -52 0 -57 -8 -60 -100 l-3 -85 -92 -3 -93 -3 0 46 0 46
-42 -3 c-43 -3 -43 -3 -43 -43 0 -40 0 -40 43 -43 42 -3 42 -4 42 -41 0 -45
12 -58 60 -63 38 -3 47 -20 36 -64 -5 -20 -12 -24 -45 -24 -46 0 -51 -9 -51
-85 0 -60 7 -68 62 -72 35 -2 37 -1 40 30 3 34 21 43 64 33 17 -5 24 -13 24
-31 0 -14 -6 -25 -12 -26 -7 -1 -20 -2 -28 -3 -8 -2 -23 -3 -33 -4 -15 -2 -18
-10 -15 -44 l3 -43 88 -3 87 -3 0 -44 0 -44 -87 -3 -88 -3 -3 -47 -3 -48 -38
0 c-45 0 -58 12 -63 60 l-3 35 -72 3 -73 3 0 44 c0 40 2 44 28 47 24 3 27 7
30 46 2 32 0 42 -12 42 -8 0 -21 3 -30 6 -13 5 -16 -2 -16 -45 l0 -51 -45 0
c-39 0 -45 -3 -51 -24 -12 -48 -2 -61 49 -64 l47 -3 0 -49 0 -49 -47 -3 c-51
-3 -61 -16 -49 -64 5 -20 12 -24 45 -24 42 0 51 11 51 61 0 27 3 30 28 27 23
-3 28 -8 32 -43 5 -38 7 -40 45 -45 39 -5 40 -6 43 -47 l3 -43 -155 0 c-85 0
-161 -3 -170 -6 -11 -4 -16 -19 -16 -50 l0 -44 -45 0 -45 0 0 83 c0 45 -4 87
-8 94 -4 6 -25 13 -47 15 l-40 3 -3 93 -3 92 -44 0 -44 0 -3 43 c-3 41 -4 42
-42 45 -50 4 -56 -6 -56 -94 0 -80 7 -91 60 -96 34 -3 35 -5 35 -43 0 -39 -1
-40 -40 -43 -22 -2 -43 -9 -47 -15 -4 -7 -8 -49 -8 -94 l0 -82 -42 -3 -43 -3
-3 -137 -3 -138 -44 0 -45 0 0 234 0 235 43 3 42 3 0 90 0 90 -40 0 -40 0 -3
-92 -3 -93 -43 0 c-48 0 -56 9 -56 61 0 25 -4 29 -29 29 -28 0 -30 -3 -33 -42
-3 -43 -3 -43 -45 -46 l-43 -3 0 -94 0 -94 43 -3 c41 -3 42 -4 47 -43 4 -32
10 -40 30 -45 24 -6 25 -10 28 -85 2 -43 8 -85 14 -92 6 -7 28 -13 49 -13 l39
0 0 -75 c0 -79 -1 -77 50 -77 11 0 25 0 30 1 6 1 10 33 10 76 l0 75 44 0 c40
0 44 -2 50 -30 l6 -30 90 0 90 0 0 171 0 170 48 -3 47 -3 3 -87 3 -88 44 0 44
0 3 -77 3 -78 43 -3 43 -3 -3 78 -3 78 -42 3 -43 3 0 90 0 90 123 -3 122 -3 0
-40 0 -40 -65 -3 c-35 -2 -70 -8 -77 -14 -7 -6 -13 -28 -13 -50 0 -38 2 -40
24 -34 14 3 36 2 50 -3 19 -8 25 -18 28 -48 l3 -38 73 -3 72 -3 0 -29 c0 -27
-3 -29 -42 -32 -43 -3 -43 -3 -46 -45 l-3 -43 73 -1 c40 -1 82 -2 93 -3 18 -1
20 -8 20 -91 l0 -90 -47 -3 -48 -3 0 45 0 46 -75 0 -75 0 0 40 c0 27 -5 42
-17 49 -23 11 -423 14 -441 3 -9 -6 -12 -32 -10 -93 l3 -84 40 -5 c38 -5 40
-7 43 -44 4 -44 -7 -56 -55 -56 -30 0 -32 -2 -35 -42 l-3 -43 -90 -5 -90 -5 0
-40 0 -40 137 -3 137 -3 3 43 c3 42 4 43 42 46 44 4 56 -7 56 -55 0 -30 3 -33
33 -33 54 0 58 -8 55 -101 l-3 -84 -135 0 -135 0 -5 40 -5 40 -137 3 -138 3 0
-45 0 -45 43 -3 c41 -3 42 -4 47 -43 4 -30 10 -41 25 -43 69 -10 66 -6 63 -85
l-3 -72 -42 -3 -43 -3 0 45 0 46 -45 0 -45 0 0 -45 0 -45 45 0 45 0 0 -44 0
-45 43 -3 c40 -3 42 -5 45 -38 2 -19 8 -41 14 -47 15 -19 75 -16 82 3 3 9 6
72 6 140 l0 124 44 0 45 0 3 -42 c3 -43 3 -43 45 -46 38 -3 43 0 49 22 12 48
-3 66 -52 66 -39 0 -44 2 -44 23 0 13 5 28 12 35 13 13 145 17 165 4 7 -4 13
-37 15 -77 l3 -70 40 -5 c39 -5 40 -6 43 -47 3 -42 2 -43 -27 -43 -52 0 -61
-8 -61 -57 l0 -44 43 3 42 3 3 47 3 47 47 3 47 3 0 85 0 85 -35 3 c-50 5 -60
17 -60 77 0 76 6 85 50 85 41 0 50 -11 50 -61 0 -27 3 -30 28 -27 l27 3 0 85
0 85 -65 3 c-73 3 -90 13 -90 52 0 39 17 49 90 52 l65 3 0 40 0 40 -120 5
-120 5 0 135 0 135 93 3 92 3 0 -46 0 -45 -38 0 c-45 0 -62 -14 -62 -50 0 -33
17 -50 50 -50 36 0 50 17 50 62 l0 38 75 0 75 0 0 -39 c0 -45 12 -58 60 -63
l35 -3 0 -85 0 -85 -35 -3 c-45 -5 -60 -18 -60 -51 0 -46 14 -51 152 -51 l128
0 0 -29 c0 -50 9 -61 51 -61 45 0 52 -14 47 -101 l-3 -54 -92 -3 -92 -3 -3 78
-3 78 -40 0 -40 0 -5 -75 -5 -75 -45 -5 c-48 -5 -57 -19 -46 -66 5 -20 12 -24
45 -24 42 0 51 11 51 61 0 28 2 29 44 29 l45 0 3 -42 3 -43 90 0 90 0 3 43 3
42 89 0 c48 0 90 -4 92 -10 2 -5 2 -46 0 -90 l-4 -80 -73 0 c-99 0 -105 -3
-105 -56 l0 -45 87 3 88 3 9 48 8 47 214 0 215 0 -3 -92 -3 -93 -40 -5 c-40
-5 -40 -5 -43 -53 l-3 -49 33 2 c57 3 58 3 58 -45 l0 -44 93 -3 92 -3 3 -42 3
-43 83 0 c94 0 106 -7 106 -62 0 -35 2 -38 29 -38 58 0 61 4 61 101 l0 89 45
0 45 0 0 -140 0 -140 -90 0 -90 0 0 -30 c0 -26 3 -30 29 -30 50 0 61 -9 61
-50 0 -41 11 -50 61 -50 29 0 30 -1 27 -43 l-3 -42 -87 -3 -88 -3 0 -44 0 -45
140 0 140 0 0 -95 0 -95 -38 0 c-47 0 -62 -14 -62 -57 l0 -33 -217 0 c-120 0
-224 -4 -231 -9 -8 -5 -12 -23 -10 -47 l3 -39 130 -3 c140 -3 145 -5 145 -59
0 -32 1 -33 44 -33 l45 0 3 43 3 42 90 0 90 0 3 -42 c3 -40 5 -43 33 -43 l29
0 0 90 0 91 -30 6 c-28 5 -30 9 -30 50 l0 44 72 -3 c64 -3 73 -5 76 -23 10
-71 -6 -65 185 -65 121 0 177 -4 185 -12 7 -7 12 -29 12 -50 l0 -37 -92 -3
-93 -3 -3 -42 -3 -43 95 0 96 0 0 44 0 45 43 3 42 3 3 277 2 278 -232 2 -233
3 -5 45 c-5 45 -5 45 -47 48 -40 3 -43 5 -43 33 l0 29 95 0 95 0 0 -30 0 -31
138 3 137 3 3 27 c3 24 8 27 45 30 41 3 42 4 47 43 l5 40 172 3 172 2 3 -42
c3 -43 3 -43 46 -46 l42 -3 0 -74 c0 -71 1 -75 24 -81 14 -3 34 -3 45 1 19 6
21 14 21 81 l0 74 -45 0 -45 0 0 45 0 45 -46 0 -45 0 3 47 3 48 88 3 87 3 0
-39 c0 -48 14 -62 62 -62 37 0 38 1 38 38 0 48 -14 62 -62 62 l-38 0 0 45 0
44 -87 3 -88 3 -3 38 c-3 33 -8 41 -38 53 -27 11 -34 20 -34 42 0 49 11 52
187 52 l163 0 0 -44 c0 -39 3 -44 26 -49 50 -9 64 1 64 49 l0 44 -45 0 -45 0
0 45 0 45 45 0 45 0 0 45 c0 39 -3 45 -24 51 -48 12 -66 -3 -66 -52 l0 -45
-137 3 -138 3 -3 80 c-3 83 -12 105 -43 105 -22 0 -28 -21 -31 -115 l-3 -70
-42 -3 -43 -3 0 38 c0 48 -14 63 -57 63 -30 0 -33 3 -33 29 0 50 -9 61 -51 61
-33 0 -40 4 -45 24 -14 59 -10 61 136 66 l135 5 0 75 0 75 -42 3 -43 3 0 45 0
44 -45 0 -45 0 0 -45 0 -45 -44 0 c-48 0 -56 -9 -56 -61 0 -28 -2 -29 -44 -29
l-45 0 -3 43 c-3 42 -3 42 -45 45 -41 3 -43 5 -43 35 0 48 -12 59 -56 55 -38
-3 -39 -4 -39 -43 l0 -40 48 -3 48 -3 -3 -42 c-3 -40 -5 -42 -41 -48 -21 -3
-43 -11 -48 -16 -6 -6 -9 -39 -7 -74 l3 -64 45 -5 c45 -5 45 -5 48 -47 l3 -42
137 -3 137 -3 3 -47 3 -48 -95 0 -96 0 0 -45 0 -45 -45 0 c-45 0 -45 0 -45
-34 0 -38 -25 -70 -47 -62 -8 3 -23 1 -34 -5 -16 -8 -19 -19 -17 -47 l3 -37
90 -5 90 -5 0 -40 c0 -39 -1 -40 -40 -45 -40 -5 -40 -5 -43 -52 l-3 -48 -49 0
-49 0 -3 48 -3 47 -42 3 c-42 3 -42 3 -45 45 l-3 42 -90 0 -90 0 0 -40 c0 -39
1 -40 40 -45 39 -5 40 -6 43 -47 3 -45 2 -45 -63 -55 -16 -3 -21 -12 -23 -46
-3 -40 -5 -43 -30 -40 l-27 3 0 275 0 275 73 3 72 3 0 -30 c0 -61 0 -61 145
-61 84 0 136 4 140 11 4 6 4 26 1 44 l-7 34 -87 3 -87 3 -3 35 c-6 55 -15 60
-108 60 l-84 0 0 45 0 45 45 0 45 0 0 45 0 45 -45 0 -45 0 0 -46 c0 -44 -1
-45 -27 -42 -25 3 -28 8 -31 45 -3 39 -1 42 25 45 24 2 29 8 31 36 3 32 4 33
45 28 23 -3 43 -5 44 -5 1 -1 3 -13 5 -28 2 -24 8 -29 36 -31 48 -5 62 12 62
73 0 85 0 85 -101 85 l-89 0 0 45 c0 43 -1 45 -29 45 -28 0 -30 2 -33 48 l-3
47 -70 3 c-118 5 -116 6 -113 -96 l3 -87 43 -3 c41 -3 42 -2 42 27 0 52 8 61
55 61 l44 0 3 -42 c3 -39 6 -43 31 -46 25 -3 27 -7 27 -46 0 -40 -2 -44 -30
-49 -25 -6 -30 -11 -30 -37 0 -28 -2 -30 -40 -30 -35 0 -42 4 -51 27 -14 38
-25 43 -99 43 -76 0 -93 -8 -88 -41 2 -20 9 -24 46 -27 l42 -3 0 -90 0 -89 33
0 c48 0 59 -12 55 -56 -3 -37 -5 -39 -43 -44 -39 -5 -40 -6 -40 -45 0 -39 1
-40 40 -45 39 -5 40 -6 43 -47 2 -30 -1 -43 -10 -44 -7 -1 -20 -3 -28 -4 -8
-1 -23 -3 -32 -4 -14 -1 -18 -10 -18 -47 l0 -45 -42 3 c-42 3 -43 4 -48 43
l-5 40 -115 2 c-175 4 -160 -9 -160 143 0 143 -3 150 -69 150 -28 0 -30 3 -33
43 l-3 42 -165 5 -165 5 -3 43 c-3 41 -2 42 27 42 41 0 61 9 61 29 0 22 19 41
42 41 17 0 23 15 20 52 -2 24 23 40 60 36 31 -3 33 -5 36 -45 l3 -43 45 0 c39
0 44 -2 44 -23 0 -32 18 -47 56 -47 35 0 44 -13 44 -60 0 -27 3 -29 43 -32 42
-3 42 -3 45 -45 3 -40 5 -43 32 -43 56 0 60 -6 60 -85 0 -40 3 -80 6 -89 8
-22 80 -22 88 0 8 20 8 228 0 248 -4 11 -19 16 -44 16 -45 0 -50 9 -50 90 0
63 -6 70 -61 70 -28 0 -29 2 -29 45 l0 45 90 0 c86 0 90 1 96 24 11 44 2 61
-36 64 -48 5 -60 18 -60 63 l0 38 47 3 c51 3 61 16 49 64 -6 21 -12 24 -51 24
l-45 0 0 45 0 45 38 0 c45 0 62 14 62 50 0 33 -17 50 -50 50 -36 0 -50 -17
-50 -62 l0 -38 -46 0 -45 0 3 -42 c3 -43 3 -43 46 -46 l42 -3 0 -45 c0 -42 -1
-44 -29 -44 -58 0 -61 -4 -61 -100 l0 -89 -42 -3 c-34 -2 -43 -7 -46 -23 -9
-64 -10 -65 -58 -65 l-45 0 3 88 3 87 35 3 c45 5 60 18 60 51 0 41 -17 51 -91
51 -88 0 -99 -5 -99 -44 0 -45 -16 -56 -81 -56 -66 0 -82 13 -77 62 2 28 7 34
31 36 25 3 27 7 27 48 0 40 -2 44 -24 44 -26 0 -36 -16 -36 -61 0 -25 -4 -29
-29 -29 -48 0 -61 -9 -61 -44 0 -42 -16 -56 -61 -56 l-37 0 3 88 c2 48 4 90 4
94 1 4 20 8 44 10 42 3 42 3 42 43 0 38 -1 40 -39 46 -41 7 -56 21 -56 55 0
28 17 42 60 46 34 3 35 5 35 43 0 38 -1 40 -35 43 -41 4 -61 18 -53 38 3 8 2
25 -1 39 -5 20 -12 25 -40 25 -40 0 -53 -14 -58 -60 -3 -34 -5 -35 -43 -35
-39 0 -40 1 -43 37 -4 52 -24 60 -145 58 -151 -3 -139 -6 -135 43 3 41 4 42
43 47 35 4 40 8 40 30 0 25 -1 25 -92 28 l-93 3 0 82 c0 93 8 107 56 107 40 0
44 11 44 106 0 80 -3 76 65 86 16 3 21 12 23 46 l3 42 95 0 94 0 0 -45 c0 -43
1 -45 29 -45 52 0 61 -8 61 -57 l0 -44 -42 3 c-43 3 -43 3 -48 48 -5 42 -7 45
-38 48 -53 5 -62 -9 -62 -104 l0 -83 -42 -3 c-43 -3 -43 -3 -46 -45 l-3 -43
45 0 46 0 0 45 0 45 44 0 c48 0 56 -9 56 -61 0 -30 -2 -31 -70 -33 -21 -1 -26
-7 -28 -34 -4 -43 12 -62 54 -62 35 0 39 6 46 70 3 24 5 25 86 26 45 0 85 4
89 8 4 3 6 24 5 46 l-3 40 96 0 95 0 0 -39 c0 -39 20 -68 39 -57 18 12 28 -23
22 -83 -1 -5 -13 -11 -28 -13 -22 -2 -29 -9 -31 -30 l-3 -28 -89 0 -88 0 -7
31 c-6 28 -9 30 -48 27 -37 -3 -42 -6 -42 -28 0 -22 5 -25 41 -28 40 -3 42 -4
47 -43 3 -23 8 -43 10 -46 3 -3 43 -6 89 -6 l83 -2 5 -90 5 -90 65 -3 c75 -4
90 -13 90 -57 0 -21 6 -35 16 -39 20 -8 212 -8 241 0 22 6 23 11 25 143 l3
136 43 3 c39 3 42 5 42 32 0 51 9 60 56 60 l44 0 0 -44 0 -45 -47 -3 c-46 -3
-48 -4 -51 -36 -4 -43 12 -62 53 -62 36 0 45 12 45 65 l0 33 73 0 c116 -1 109
-4 105 45 l-3 42 -88 3 -88 3 3 27 c3 23 8 28 43 32 39 5 40 6 43 48 3 34 0
42 -15 44 -10 1 -25 2 -33 4 -8 1 -21 2 -27 3 -8 1 -13 17 -13 46 l0 45 -50 0
-50 0 0 -45 c0 -29 -4 -45 -12 -46 -96 -5 -237 -3 -250 3 -15 7 -18 23 -18 93
l0 85 -45 0 -45 0 0 -85 c0 -93 -9 -108 -63 -98 -26 5 -31 13 -39 68 -2 13
-12 21 -31 23 -25 3 -27 7 -27 47 l0 44 -92 3 -92 3 2 105 c0 58 -1 120 -4
138 -5 32 -6 33 -47 30 -41 -3 -42 -4 -47 -43 -5 -39 -6 -40 -47 -43 l-42 -3
-3 43 c-3 41 -5 43 -38 46 -48 5 -60 18 -60 63 l0 38 48 3 47 3 3 42 c3 42 3
42 45 45 42 3 42 3 45 46 3 38 6 42 30 43 33 2 55 -1 62 -8 3 -3 4 -65 2 -139
l-4 -134 80 0 c116 0 112 -3 112 101 l0 89 30 0 c21 0 30 -5 31 -17 1 -10 3
-25 4 -33 1 -8 3 -21 4 -27 1 -10 36 -13 141 -13 l140 0 0 -49 0 -50 -47 -3
-48 -3 -3 -42 -3 -43 -44 0 -44 0 -3 43 c-3 41 -4 42 -42 45 -44 4 -56 -7 -56
-55 0 -27 -4 -32 -27 -35 -25 -3 -28 -7 -28 -43 0 -36 3 -40 28 -43 28 -3 28
-5 31 63 1 17 9 21 49 23 l47 3 0 -45 0 -46 45 0 45 0 0 45 0 45 44 0 c48 0
56 9 56 61 0 29 1 30 43 27 41 -3 42 -4 47 -43 l5 -40 93 -3 92 -3 0 96 0 95
90 0 90 0 0 -38 c0 -51 14 -62 76 -62 84 0 84 0 84 101 l0 89 -30 0 c-28 0
-30 2 -30 39 0 22 -4 42 -9 45 -5 4 -40 7 -78 7 -94 2 -103 5 -103 40 0 28 -2
29 -45 29 l-45 0 0 45 0 45 -44 0 c-48 0 -56 -9 -56 -61 0 -28 1 -29 50 -29
46 0 50 -2 50 -25 0 -28 -25 -45 -69 -45 -28 0 -31 -3 -31 -33 0 -41 15 -57
56 -57 35 0 44 -13 44 -61 l0 -29 -140 0 -140 0 0 33 c0 54 -5 56 -150 59
l-135 3 -2 25 c0 14 -1 33 -2 43 -1 14 -8 18 -28 15 -25 -3 -28 -7 -31 -46
l-3 -43 -42 3 c-41 3 -42 4 -47 43 -4 31 -10 41 -30 46 -14 4 -35 4 -47 2 -22
-5 -23 -2 -23 60 0 91 4 97 56 97 l44 0 0 45 c0 43 1 45 29 45 58 0 61 4 61
102 l0 89 -42 -3 -43 -3 -3 -92 -3 -92 -94 0 -95 1 0 49 0 49 45 0 45 0 0 45
0 45 -45 0 -45 0 0 38 c0 46 14 62 56 62 41 0 45 22 35 163 -1 12 -10 17 -33
17 -46 0 -56 10 -60 55 l-3 40 -92 3 -93 3 0 -50z m190 -375 l0 -45 -42 -3
c-42 -3 -43 -4 -46 -42 -4 -44 7 -56 56 -56 l32 0 0 -125 0 -125 -45 0 -45 0
0 -45 0 -45 -50 0 -50 0 0 124 0 125 -42 3 c-43 3 -43 3 -46 46 -3 41 -2 42
27 42 57 0 61 6 61 85 0 108 -3 105 101 105 l89 0 0 -44z m1188 -528 l-3 -43
-47 -3 c-47 -3 -48 -3 -48 27 0 52 8 61 57 61 l44 0 -3 -42z m-1468 -194 l0
-45 -42 3 c-43 3 -43 3 -46 46 l-3 42 45 0 46 0 0 -46z m-736 -140 c11 -4 16
-19 16 -50 l0 -44 -44 0 -45 0 -3 -42 c-3 -42 -4 -43 -42 -46 -44 -4 -56 7
-56 56 0 32 0 32 50 32 l50 0 0 44 c0 26 5 46 13 49 18 8 43 8 61 1z m1109
-131 c6 -48 -1 -55 -49 -51 -38 3 -39 4 -42 46 l-3 42 44 0 c44 0 45 -1 50
-37z m-1190 -160 c10 -6 9 -55 -2 -71 -5 -8 -23 -12 -47 -10 -36 3 -39 6 -42
34 -5 53 39 76 91 47z m1723 -112 c6 -27 11 -30 48 -33 41 -3 41 -3 44 -45 2
-30 -1 -43 -10 -44 -7 -1 -20 -2 -28 -3 -8 -2 -23 -3 -32 -4 -15 -2 -18 -13
-18 -79 0 -43 -4 -84 -9 -91 -5 -8 -23 -12 -47 -10 l-39 3 -5 135 -5 135 -40
0 -40 0 -5 -90 -5 -90 -33 -3 c-43 -4 -62 12 -62 54 0 30 -4 35 -30 41 -28 5
-30 9 -30 49 0 42 1 44 30 44 26 0 31 5 37 30 l6 30 134 0 134 0 5 -29z m-628
-454 l3 -138 -138 3 -138 3 -3 124 c-1 69 0 131 2 138 4 11 35 13 138 11 l133
-3 3 -138z m96 -282 l1 -40 -45 0 c-42 0 -45 2 -48 28 -6 48 3 58 50 55 41 -3
41 -3 42 -43z m94 -127 l3 -78 -46 0 c-40 0 -45 3 -46 23 0 12 -3 48 -5 80
l-4 58 47 -3 48 -3 3 -77z m1812 37 l0 -45 -45 0 -45 0 0 45 0 45 45 0 45 0 0
-45z m-302 -51 c21 -6 23 -11 20 -78 l-3 -71 -42 -3 -43 -3 0 80 c0 88 3 92
68 75z m300 -386 c-3 -43 -3 -43 -45 -46 l-43 -3 0 -45 c0 -35 4 -44 18 -46 9
-1 24 -2 32 -4 8 -1 21 -2 28 -3 7 -1 12 -17 12 -46 l0 -45 45 0 45 0 0 -46 0
-45 -42 3 c-43 3 -43 3 -46 46 l-3 42 -45 0 c-28 0 -44 5 -45 13 0 6 -1 28 -2
47 l-2 35 -72 -3 c-103 -5 -113 0 -113 54 l0 44 96 0 96 0 -2 33 c-3 56 -3 57
46 57 l45 0 -3 -42z m-88 -270 c0 -49 -12 -60 -56 -56 -34 3 -39 6 -42 31 -6
48 3 57 53 57 44 0 45 -1 45 -32z m-382 -200 c-3 -43 -3 -43 -45 -46 l-43 -3
0 45 0 46 46 0 45 0 -3 -42z m190 -5 l3 -43 -45 0 -46 0 0 46 0 45 43 -3 c42
-3 42 -3 45 -45z m-470 -150 l-3 -48 -75 0 c-68 0 -75 2 -78 21 -2 11 2 32 7
47 10 26 14 27 81 27 l71 0 -3 -47z m92 -98 l0 -44 93 -3 92 -3 5 -40 c5 -38
7 -40 45 -45 39 -5 40 -7 49 -52 9 -46 10 -47 50 -50 41 -3 41 -3 41 -43 0
-40 0 -40 -42 -43 l-42 -3 -3 43 -3 43 -45 0 -45 0 -5 -40 c-5 -39 -6 -40 -45
-40 -39 0 -40 1 -45 40 l-5 40 -70 3 c-112 4 -115 5 -115 57 0 43 -1 45 -31
45 -29 0 -30 1 -27 43 3 38 6 42 31 45 25 3 27 7 27 48 l0 44 45 0 45 0 0 -45z"/>
<path d="M3104 3224 c-10 -40 7 -59 52 -59 39 0 39 0 39 40 0 40 0 40 -42 43
-39 3 -43 1 -49 -24z"/>
<path d="M4540 1585 l0 -45 45 0 45 0 0 45 0 45 -45 0 -45 0 0 -45z"/>
<path d="M3732 5208 c3 -43 3 -43 43 -43 40 0 40 0 43 43 l3 42 -46 0 -46 0 3
-42z"/>
<path d="M3487 5154 c-4 -4 -7 -24 -7 -45 0 -32 3 -37 28 -41 54 -7 63 0 60
45 -3 40 -5 42 -38 45 -20 2 -39 0 -43 -4z"/>
<path d="M1820 4755 c0 -54 8 -65 50 -65 40 0 50 11 50 56 0 26 -5 30 -62 38
-37 5 -38 4 -38 -29z"/>
<path d="M1670 4646 l0 -46 46 0 45 0 -3 43 c-3 42 -3 42 -45 45 l-43 3 0 -45z"/>
<path d="M2014 4676 c-3 -8 -4 -27 -2 -43 3 -25 7 -28 46 -31 l42 -3 0 45 0
46 -40 0 c-26 0 -43 -5 -46 -14z"/>
<path d="M5098 4613 c-3 -84 -10 -92 -64 -79 -17 5 -24 13 -24 30 0 39 -74 53
-88 17 -5 -15 -7 -178 -3 -223 1 -5 42 -8 91 -8 l90 0 0 90 0 90 40 0 c22 0
43 1 48 3 4 1 9 -18 12 -43 l5 -45 40 0 c40 0 40 0 43 43 3 39 1 42 -22 43
-14 1 -30 3 -36 4 -5 1 -14 3 -20 4 -6 0 -10 34 -10 76 l0 75 -50 0 -49 0 -3
-77z"/>
<path d="M5630 4615 c0 -73 -4 -81 -34 -76 -6 1 -20 0 -33 -4 -20 -5 -23 -12
-23 -50 l0 -45 -74 0 c-58 0 -75 -3 -80 -16 -3 -9 -6 -64 -6 -124 0 -125 4
-140 35 -140 25 0 35 17 35 61 0 28 2 29 45 29 l45 0 0 95 0 95 95 0 95 0 0
45 c0 43 1 45 29 45 47 0 61 10 61 41 0 28 -2 29 -45 29 l-45 0 0 45 0 45 -50
0 -50 0 0 -75z"/>
<path d="M1829 4584 c-21 -26 1 -49 47 -49 29 0 40 4 42 18 8 42 -60 66 -89
31z"/>
<path d="M1687 4532 c-15 -3 -17 -12 -15 -45 3 -41 4 -42 43 -47 39 -5 40 -6
43 -47 3 -40 5 -43 33 -43 l30 0 -3 93 -3 92 -55 0 c-31 0 -64 -1 -73 -3z"/>
<path d="M1923 4524 c-2 -7 -3 -27 -1 -46 3 -31 5 -33 43 -33 40 0 40 0 43 41
l3 42 -42 4 c-26 2 -43 -1 -46 -8z"/>
<path d="M5205 4338 c-2 -7 -6 -29 -7 -48 -3 -34 -5 -35 -48 -40 -48 -5 -57
-19 -46 -66 5 -20 12 -24 45 -24 42 0 51 11 51 61 0 25 4 29 29 29 50 0 61 9
61 50 0 40 -11 50 -56 50 -14 0 -27 -6 -29 -12z"/>
<path d="M5112 4058 c-7 -7 -12 -44 -12 -95 l0 -83 44 0 c52 0 56 6 56 99 0
73 -10 91 -50 91 -14 0 -31 -5 -38 -12z"/>
<path d="M4403 3780 c-16 -7 -23 -18 -23 -38 0 -38 17 -52 63 -52 l38 0 -3 48
c-3 42 -6 47 -28 49 -14 1 -35 -2 -47 -7z"/>
<path d="M5217 3783 c-14 -4 -17 -13 -15 -46 3 -42 3 -42 43 -42 39 0 40 1 43
39 4 51 -14 64 -71 49z"/>
<path d="M1762 3589 c3 -37 7 -44 28 -49 17 -4 26 -14 28 -30 7 -66 10 -70 52
-70 33 0 41 4 46 24 3 13 4 35 2 47 -2 20 -9 24 -41 25 -46 1 -55 9 -59 54 -3
30 -7 35 -31 38 -27 3 -28 2 -25 -39z"/>
<path d="M4637 3623 c-9 -8 -9 -46 -1 -67 4 -10 18 -16 39 -16 39 0 52 -14 57
-60 3 -34 5 -35 43 -35 l40 0 3 93 3 92 -89 0 c-49 0 -92 -3 -95 -7z"/>
<path d="M2017 3534 c-4 -4 -7 -47 -7 -96 l0 -88 45 0 45 0 0 90 c0 50 -1 90
-2 90 -58 9 -75 10 -81 4z"/>
<path d="M5023 3532 c-6 -4 -13 -25 -15 -47 -3 -39 -4 -40 -45 -43 -41 -3 -43
-5 -43 -35 0 -51 -9 -56 -100 -59 l-85 -3 0 -90 0 -90 40 -5 c38 -5 40 -7 45
-45 5 -38 7 -40 44 -43 47 -4 57 8 55 68 -2 115 -4 112 44 108 41 -3 42 -4 47
-43 l5 -40 87 -3 c86 -3 88 -2 94 22 11 44 2 61 -36 64 -58 6 -60 12 -60 153
0 71 -3 129 -7 130 -5 0 -19 2 -33 5 -14 2 -30 0 -37 -4z"/>
<path d="M4294 3426 c-3 -8 -4 -27 -2 -43 3 -24 8 -29 43 -33 l40 -5 3 -70 c4
-112 5 -115 57 -115 l45 0 0 -46 c0 -44 1 -45 28 -42 24 3 27 8 30 45 3 42 3
42 45 45 42 3 42 3 45 46 l3 42 -45 0 -46 0 0 -45 c0 -43 -1 -45 -30 -45 -29
0 -30 2 -30 44 0 41 2 45 28 48 25 3 27 6 27 48 0 41 -2 45 -27 48 -24 3 -27
8 -30 45 l-3 42 -88 3 c-69 2 -88 0 -93 -12z"/>
<path d="M1207 3343 c-4 -3 -7 -23 -7 -44 0 -40 11 -49 61 -49 28 0 29 1 29
50 l0 50 -38 0 c-21 0 -42 -3 -45 -7z"/>
<path d="M4642 3058 c-7 -7 -12 -24 -12 -38 0 -14 5 -31 12 -38 7 -7 24 -12
38 -12 14 0 31 5 38 12 7 7 12 24 12 38 0 14 -5 31 -12 38 -7 7 -24 12 -38 12
-14 0 -31 -5 -38 -12z"/>
<path d="M5022 3061 c-8 -5 -12 -23 -10 -47 3 -38 4 -39 43 -39 39 0 40 1 43
39 4 41 -8 56 -43 56 -11 0 -26 -4 -33 -9z"/>
<path d="M5732 2678 c3 -43 3 -43 43 -43 40 0 40 0 43 43 l3 42 -46 0 -46 0 3
-42z"/>
<path d="M1482 2588 c2 -34 7 -43 23 -46 64 -9 65 -10 65 -57 l0 -45 95 0 95
0 0 44 c0 48 -9 56 -61 56 -25 0 -29 4 -29 29 0 58 -4 61 -102 61 l-89 0 3
-42z"/>
<path d="M5547 2624 c-4 -4 -7 -25 -7 -46 l0 -38 46 0 45 0 -3 43 c-3 40 -4
42 -38 45 -20 2 -39 0 -43 -4z"/>
<path d="M2838 2529 c-21 -12 -24 -59 -6 -77 7 -7 29 -12 50 -12 l38 0 0 -46
0 -45 43 3 c42 3 42 3 42 43 0 40 0 40 -42 43 -42 3 -43 4 -43 41 0 20 -5 42
-12 49 -15 15 -47 15 -70 1z"/>
<path d="M2670 2396 c0 -45 1 -46 31 -46 29 0 30 1 27 43 -3 38 -6 42 -30 45
-27 3 -28 2 -28 -42z"/>
<path d="M2670 2205 c0 -43 1 -45 30 -45 29 0 30 2 30 45 0 43 -1 45 -30 45
-29 0 -30 -2 -30 -45z"/>
<path d="M5207 1874 c-4 -4 -7 -18 -7 -31 0 -21 5 -23 45 -23 l45 0 0 -95 0
-95 -45 0 -45 0 0 -45 0 -45 45 0 45 0 0 44 0 45 43 3 42 3 0 90 0 90 -42 3
c-37 3 -42 6 -45 30 -3 23 -8 27 -38 30 -20 2 -39 0 -43 -4z"/>
<path d="M3927 1533 c-4 -3 -7 -26 -7 -49 l0 -43 -47 -3 -48 -3 -3 -42 c-3
-42 -3 -42 -45 -45 l-42 -3 -3 -92 -3 -93 -44 0 c-39 0 -45 -3 -51 -24 -12
-49 -2 -61 46 -61 l45 0 3 42 c3 42 3 42 45 45 l42 3 3 93 3 92 43 0 c48 0 56
9 56 61 0 25 4 29 29 29 50 0 61 9 61 50 0 25 -5 40 -16 44 -21 8 -59 8 -67
-1z"/>
<path d="M3297 1153 c-4 -3 -7 -24 -7 -45 l0 -38 -45 0 -45 0 0 -44 c0 -47 6
-53 55 -52 29 1 30 3 33 49 l3 47 43 0 c39 0 45 3 50 26 12 45 -1 64 -43 64
-21 0 -41 -3 -44 -7z"/>
<path d="M3480 1115 l0 -45 45 0 45 0 0 45 0 45 -45 0 -45 0 0 -45z"/>
<path d="M1920 5536 c0 -87 -5 -96 -50 -96 -41 0 -50 -11 -50 -60 l0 -29 -72
-3 -73 -3 -3 -70 c-4 -110 -6 -115 -52 -115 -46 0 -48 5 -52 115 -3 75 -11 84
-64 71 -20 -5 -24 -12 -24 -45 0 -48 -7 -51 -110 -51 l-79 0 -3 47 c-3 52 -16
61 -64 49 -22 -6 -25 -11 -22 -49 3 -42 3 -42 46 -45 l42 -3 0 -44 0 -44 93
-3 92 -3 3 -42 c3 -39 6 -43 30 -44 30 -1 118 -1 199 0 l52 1 3 43 c3 38 6 42
31 45 22 3 27 8 27 32 0 57 5 60 101 60 l89 0 0 38 c0 47 14 62 57 62 33 0 33
0 33 -50 l0 -50 49 0 50 0 3 -42 c3 -43 3 -43 46 -46 l42 -3 0 45 0 45 -42 3
c-43 3 -43 3 -48 48 l-5 45 -47 3 -48 3 0 44 0 44 -42 3 -43 3 -3 70 c-3 76
-10 85 -59 85 l-33 0 0 -64z"/>
<path d="M3104 5756 c-11 -46 3 -66 46 -66 34 0 41 4 46 24 11 47 2 61 -43 64
-38 3 -43 0 -49 -22z"/>
<path d="M860 4206 c0 -44 1 -46 30 -46 l30 0 0 -96 0 -95 43 3 42 3 0 90 0
90 -42 3 c-42 3 -42 3 -45 45 -3 37 -6 42 -30 45 -27 3 -28 2 -28 -42z"/>
<path d="M1110 4115 l0 -45 45 0 45 0 0 45 0 45 -45 0 -45 0 0 -45z"/>
<path d="M574 3224 c-10 -40 7 -59 52 -59 39 0 39 0 39 40 0 40 0 40 -42 43
-39 3 -43 1 -49 -24z"/>
<path d="M5637 3244 c-9 -9 -9 -47 -1 -68 4 -11 19 -16 45 -16 33 0 40 4 45
24 11 46 2 61 -41 64 -23 2 -44 0 -48 -4z"/>
<path d="M3107 714 c-12 -13 -8 -61 7 -73 8 -7 30 -11 48 -9 31 3 33 5 33 43
0 40 0 40 -40 43 -23 2 -44 0 -48 -4z"/>
<path d="M3570 502 c0 -21 5 -43 12 -50 14 -14 205 -17 226 -3 8 5 12 23 10
47 l-3 39 -122 3 -123 3 0 -39z"/>
<path d="M5637 714 c-9 -9 -9 -47 -1 -68 4 -11 19 -16 45 -16 33 0 40 4 45 24
11 46 2 61 -41 64 -23 2 -44 0 -48 -4z"/>
<path d="M3020 6312 c-6 -2 -10 -37 -10 -77 l0 -74 -42 -3 c-43 -3 -43 -3 -46
-45 -3 -46 14 -59 62 -47 23 5 26 11 26 50 l0 44 45 0 45 0 0 -40 c0 -46 21
-63 66 -51 31 8 40 28 30 67 -6 21 -12 24 -51 24 -43 0 -45 1 -45 29 0 48 9
61 44 61 36 0 56 15 56 41 0 15 -12 18 -85 21 -47 2 -90 2 -95 0z"/>
<path d="M42 6003 l3 -308 304 -3 c237 -2 306 1 313 10 4 7 8 147 8 311 l0
297 -315 0 -315 0 2 -307z m526 15 l-3 -233 -205 -3 c-113 -1 -215 0 -227 3
l-23 5 0 230 0 230 230 0 230 0 -2 -232z"/>
<path d="M204 6147 c-2 -7 -3 -69 -2 -138 l3 -124 135 0 135 0 0 135 0 135
-133 3 c-103 2 -134 0 -138 -11z"/>
<path d="M760 6195 c0 -103 2 -115 19 -125 11 -5 26 -8 33 -5 22 8 41 -11 47
-51 5 -33 10 -39 34 -42 25 -3 27 -7 27 -48 l0 -44 46 0 45 0 -3 43 c-3 42 -3
42 -45 45 l-43 3 0 170 0 169 -80 0 -80 0 0 -115z"/>
<path d="M1570 6292 c0 -25 20 -42 50 -42 30 0 50 17 50 42 0 15 -9 18 -50 18
-41 0 -50 -3 -50 -18z"/>
<path d="M4630 6292 c0 -25 20 -42 50 -42 30 0 50 17 50 42 0 15 -9 18 -50 18
-41 0 -50 -3 -50 -18z"/>
<path d="M5630 6016 c0 -162 3 -301 6 -310 5 -14 44 -16 330 -16 l324 0 0 310
0 310 -330 0 -330 0 0 -294z m564 218 c12 -31 7 -429 -6 -442 -13 -13 -411
-18 -442 -6 -14 5 -16 36 -16 235 l0 229 229 0 c199 0 230 -2 235 -16z"/>
<path d="M5824 6147 c-2 -7 -3 -69 -2 -138 l3 -124 138 -3 138 -3 -3 138 -3
138 -133 3 c-103 2 -134 0 -138 -11z"/>
<path d="M4642 6148 c-18 -18 -15 -75 4 -82 25 -10 59 -7 72 6 13 13 16 47 6
72 -7 19 -64 22 -82 4z"/>
<path d="M5463 6063 c-9 -3 -13 -32 -13 -94 l0 -90 43 3 42 3 3 88 c2 65 0 87
-10 88 -7 1 -22 3 -33 4 -11 1 -26 0 -32 -2z"/>
<path d="M2392 5861 c-4 -11 -6 -74 -4 -141 l3 -121 42 3 42 3 3 129 c3 140 1
146 -51 146 -18 0 -30 -7 -35 -19z"/>
<path d="M4732 5738 c3 -43 3 -43 43 -43 40 0 40 0 43 43 l3 42 -46 0 -46 0 3
-42z"/>
<path d="M5104 5767 c-3 -8 -4 -47 -2 -88 l3 -74 42 -3 c51 -4 56 7 51 108
l-3 65 -43 3 c-29 2 -44 -1 -48 -11z"/>
<path d="M5450 5652 c0 -131 -6 -152 -41 -152 -23 0 -29 -20 -29 -91 l0 -59
79 0 80 0 3 43 c3 42 3 42 45 45 37 3 42 6 45 30 3 26 5 27 73 30 109 4 115 6
115 51 0 26 -5 41 -16 45 -9 3 -72 6 -140 6 l-124 0 0 90 0 90 -45 0 -45 0 0
-128z"/>
<path d="M6023 5594 c-8 -4 -13 -24 -13 -50 l0 -44 -45 0 c-42 0 -46 -2 -51
-30 l-6 -29 -87 -3 -86 -3 -3 -42 c-3 -42 -2 -43 27 -43 50 0 61 -9 61 -51 0
-47 12 -51 115 -47 l70 3 3 33 c4 43 -12 62 -54 62 -27 0 -35 5 -40 24 -11 47
-2 61 46 66 40 4 45 8 48 33 l3 27 89 0 c71 0 89 -3 94 -16 13 -35 6 -43 -41
-46 l-48 -3 0 -40 0 -40 48 -3 47 -3 0 -50 0 -49 -95 0 -96 0 3 -137 3 -138
78 -3 c90 -3 107 5 107 53 0 36 13 45 61 45 29 0 30 1 27 43 -3 42 -3 42 -45
45 l-43 3 0 44 0 44 43 3 42 3 0 45 0 45 -42 3 -43 3 0 44 0 44 43 3 42 3 0
75 0 75 -125 2 c-69 1 -131 -1 -137 -3z"/>
<path d="M4017 5434 c-4 -4 -7 -25 -7 -46 l0 -38 46 0 45 0 -3 43 c-3 40 -4
42 -38 45 -20 2 -39 0 -43 -4z"/>
<path d="M302 5338 c-15 -15 -15 -61 0 -76 7 -7 24 -12 38 -12 33 0 50 17 50
50 0 33 -17 50 -50 50 -14 0 -31 -5 -38 -12z"/>
<path d="M5737 5154 c-4 -4 -7 -25 -7 -46 l0 -38 46 0 45 0 -3 43 c-3 40 -4
42 -38 45 -20 2 -39 0 -43 -4z"/>
<path d="M290 5033 c0 -46 14 -63 51 -63 35 0 51 21 47 62 -3 32 -5 33 -50 36
l-48 3 0 -38z"/>
<path d="M44 4956 c-3 -8 -4 -27 -2 -43 2 -22 9 -29 30 -31 30 -4 44 23 34 64
-5 17 -13 24 -32 24 -13 0 -27 -6 -30 -14z"/>
<path d="M204 4867 c-3 -9 -4 -30 -2 -48 3 -37 20 -46 64 -35 22 6 25 11 22
49 -3 41 -4 42 -41 45 -26 2 -39 -1 -43 -11z"/>
<path d="M574 4666 c-3 -13 -3 -34 1 -45 6 -19 14 -21 96 -21 l90 0 -3 43 -3
42 -87 3 c-86 3 -88 2 -94 -22z"/>
<path d="M213 4063 c-8 -3 -13 -23 -13 -49 l0 -44 -45 0 -45 0 0 -89 c0 -99 9
-112 64 -92 25 10 26 13 26 95 l0 85 43 3 c41 3 42 4 45 42 4 49 -26 69 -75
49z"/>
<path d="M45 3047 c-3 -12 -5 -54 -3 -92 3 -68 4 -70 30 -73 49 -6 51 -92 3
-92 -30 0 -37 -24 -33 -101 3 -49 5 -54 28 -58 31 -4 40 -17 40 -58 l0 -33 91
0 90 0 -3 43 c-3 41 -4 42 -43 47 -39 5 -40 6 -43 47 l-3 42 43 3 c39 3 43 6
48 33 5 27 9 30 50 35 48 5 57 19 46 66 -5 20 -12 24 -45 24 -42 0 -51 -11
-51 -61 0 -28 -2 -29 -45 -29 l-45 0 0 89 0 90 43 3 42 3 0 45 c0 48 -12 58
-61 46 -21 -6 -24 -12 -24 -52 l0 -45 -42 3 c-41 3 -43 5 -46 38 -2 19 -8 41
-14 47 -17 21 -47 15 -53 -10z"/>
<path d="M873 2783 c-18 -7 -16 -52 3 -60 23 -9 51 23 38 44 -12 19 -23 24
-41 16z"/>
<path d="M44 2427 c-2 -7 -3 -69 -2 -138 l3 -124 78 -3 78 -3 -3 -137 -3 -137
-42 -3 -43 -3 0 -124 0 -124 -33 -3 c-30 -3 -32 -5 -32 -43 0 -36 3 -40 30
-45 28 -5 30 -8 30 -50 0 -42 -2 -45 -30 -50 l-30 -5 0 -85 0 -85 65 -3 c78
-4 92 -14 88 -61 -3 -35 -5 -36 -45 -39 l-43 -3 0 -44 c0 -42 -1 -44 -32 -47
l-33 -3 0 -120 c0 -119 0 -120 24 -123 13 -2 28 2 32 10 5 7 9 64 9 126 l0
113 43 -3 c42 -3 42 -3 45 -45 3 -36 7 -44 27 -49 42 -10 65 4 65 40 0 39 15
56 50 56 35 0 50 -17 50 -56 0 -20 6 -34 16 -38 20 -8 228 -8 248 0 11 4 16
19 16 50 l0 44 44 0 45 0 3 -47 c3 -48 3 -48 40 -51 32 -3 40 1 49 20 7 16 7
32 0 51 -9 23 -16 27 -51 27 l-41 0 3 43 c3 40 5 42 38 45 57 6 60 13 60 137
0 63 -3 120 -6 129 -4 11 -19 16 -50 16 l-44 0 0 140 0 140 -45 0 -45 0 0 50
0 50 44 0 45 0 3 -47 3 -48 48 -3 48 -3 -3 48 -3 48 -47 3 c-42 3 -47 6 -50
30 -3 24 -8 27 -45 30 l-43 3 0 49 c0 43 2 48 20 43 11 -3 31 -2 45 1 24 6 26
11 23 49 -3 42 -3 42 -45 45 l-43 3 0 44 0 44 43 3 42 3 0 90 0 90 -135 0
-135 0 -3 -47 c-3 -45 -5 -48 -32 -48 -47 0 -60 9 -60 44 0 42 -16 56 -62 56
l-38 0 0 46 0 45 -42 -3 c-43 -3 -43 -3 -46 -45 l-3 -43 -45 0 c-42 0 -44 1
-44 29 0 16 -3 36 -6 45 -7 19 -53 21 -60 3z m246 -117 c0 -44 18 -61 66 -57
l29 2 3 -135 c3 -145 5 -150 59 -150 l32 0 3 -72 3 -73 41 -3 c39 -3 42 -1 47
27 6 29 9 31 52 31 43 0 45 -1 45 -30 0 -29 -1 -30 -50 -30 l-50 0 0 -50 0
-50 -90 0 -90 0 0 -90 0 -90 44 0 45 0 3 43 c3 42 3 42 45 45 42 3 42 3 45 45
l3 42 48 3 48 3 -3 -43 c-3 -42 -4 -43 -43 -46 -45 -4 -55 -14 -55 -59 0 -31
2 -33 38 -33 48 0 62 -14 62 -62 l0 -38 46 0 45 0 -3 -42 c-3 -43 -3 -43 -45
-46 -41 -3 -42 -4 -45 -45 -3 -40 -5 -42 -42 -48 -40 -7 -56 -21 -56 -54 0
-33 13 -43 55 -47 39 -3 40 -4 43 -46 l3 -43 -93 3 -93 3 -3 87 c-3 101 2 96
-117 100 l-70 3 -3 43 -3 42 -90 0 -89 0 0 45 c0 43 1 45 29 45 52 0 61 8 61
56 l0 44 -45 0 -45 0 0 46 0 45 43 -3 c42 -3 42 -3 45 -45 l3 -43 45 0 44 0 0
310 0 310 -45 0 -45 0 0 88 c0 49 3 92 7 95 3 4 24 7 45 7 38 0 38 0 38 -40z
m375 -105 l0 -40 -90 0 -90 0 -3 43 -3 43 93 -3 93 -3 0 -40z m3 -182 c-3 -46
-4 -48 -36 -51 -41 -4 -62 12 -62 47 0 37 17 51 63 51 l38 0 -3 -47z"/>
<path d="M482 1448 l3 -93 93 -3 92 -3 0 46 0 45 -38 0 c-48 0 -62 14 -62 62
l0 38 -45 0 -46 0 3 -92z"/>
<path d="M297 1434 c-4 -4 -7 -25 -7 -46 l0 -38 45 0 c39 0 45 3 51 24 11 46
2 61 -41 64 -23 2 -44 0 -48 -4z"/>
<path d="M44 2045 c-9 -37 3 -75 24 -75 25 0 42 20 42 50 0 50 -54 71 -66 25z"/>
<path d="M2294 1807 c-3 -8 -4 -49 -2 -93 l3 -79 135 -5 135 -5 5 -40 c5 -39
6 -40 50 -45 43 -5 45 -6 48 -41 4 -52 -12 -60 -105 -57 l-78 3 -3 40 c-2 22
-9 43 -15 47 -20 13 -152 9 -165 -4 -7 -7 -12 -29 -12 -50 l0 -38 -90 0 c-87
0 -90 -1 -96 -24 -11 -45 3 -65 49 -68 42 -3 42 -3 45 -45 l3 -43 -40 0 c-52
0 -61 -17 -61 -115 l0 -76 -42 3 -43 3 -3 85 c-3 92 -8 100 -60 100 -33 0 -33
0 -30 43 3 41 4 42 43 47 39 5 40 6 43 47 l3 42 -43 3 -43 3 -3 48 -3 47 90 0
91 0 0 45 0 45 -89 0 -90 0 -3 43 c-3 42 -3 42 -45 45 -35 3 -42 0 -48 -18 -4
-12 -4 -32 -1 -46 6 -21 12 -24 51 -24 l45 0 0 -45 0 -45 -39 0 c-45 0 -58
-12 -63 -60 l-3 -35 -72 -3 -73 -3 0 -44 0 -45 -94 0 -95 0 -3 43 c-3 42 -3
42 -45 45 -43 3 -43 4 -43 41 0 45 -12 58 -60 63 -33 3 -35 5 -38 46 l-3 43
-42 -3 c-41 -3 -42 -4 -47 -43 l-5 -40 -90 -5 -90 -5 -3 -47 -3 -48 -45 0 -44
0 0 -185 0 -185 45 0 45 0 0 -44 c0 -48 -9 -56 -61 -56 -27 0 -30 -3 -27 -27
3 -28 3 -28 90 -31 83 -3 88 -4 94 -27 11 -44 -3 -64 -49 -67 -41 -3 -42 -4
-45 -43 -4 -46 -14 -55 -60 -55 -33 0 -33 0 -30 -42 3 -42 4 -43 43 -48 38 -5
40 -7 45 -45 l5 -40 90 0 90 0 0 40 c0 38 -1 40 -35 43 -19 2 -39 7 -45 12 -6
5 -9 44 -7 94 l3 85 42 3 c41 3 42 4 47 43 5 39 6 40 47 43 l43 3 2 -183 3
-183 93 -3 92 -3 0 -43 c0 -48 -9 -56 -61 -56 l-29 0 0 -90 0 -90 78 0 c42 0
83 -4 90 -9 8 -5 12 -23 10 -47 -3 -37 -5 -39 -43 -44 -39 -5 -40 -6 -43 -47
l-3 -43 95 0 96 0 0 89 c0 96 3 101 60 101 27 0 29 -3 32 -47 3 -44 5 -48 28
-48 23 0 25 4 25 45 0 42 -2 45 -27 48 l-28 3 0 90 0 89 -45 0 c-43 0 -45 -1
-45 -29 0 -50 -9 -61 -51 -61 -45 0 -47 6 -51 115 l-3 70 -42 3 c-42 3 -42 3
-45 45 -3 41 -4 42 -43 47 -39 5 -40 6 -43 48 l-3 42 90 0 91 0 0 -33 c0 -43
15 -57 62 -57 l38 0 0 -45 0 -45 75 0 75 0 0 -38 c0 -45 14 -62 50 -62 33 0
50 17 50 51 0 33 -15 46 -60 51 -37 3 -47 20 -36 63 6 23 11 24 94 27 l87 3 3
93 3 92 44 0 45 0 0 45 0 44 92 3 c89 3 92 4 98 28 5 21 12 25 48 28 38 3 42
6 48 37 11 61 5 65 -96 65 l-90 0 0 95 0 95 33 0 c45 0 55 -10 59 -55 3 -39 4
-40 46 -43 23 -2 43 -7 43 -13 1 -5 3 -13 4 -19 1 -5 3 -21 4 -35 1 -25 2 -25
91 -25 l90 0 0 44 0 45 -42 3 c-41 3 -43 5 -46 38 -5 46 -18 60 -58 60 -32 0
-33 2 -36 43 -3 42 -3 42 -48 47 -45 5 -45 5 -48 48 l-3 42 44 0 c49 0 57 -9
57 -61 l0 -29 134 0 c146 0 146 0 146 -61 0 -27 3 -30 28 -27 l27 3 3 133 3
132 -31 6 c-28 6 -30 10 -30 50 l0 44 75 0 76 0 -3 93 -3 92 -70 0 -70 0 -5
-39 c-6 -48 -28 -64 -67 -50 -23 8 -29 17 -33 49 l-5 40 -133 3 c-105 2 -134
0 -138 -11z m-1192 -448 c2 -45 0 -85 -3 -91 -3 -5 -24 -8 -45 -6 l-39 3 -3
88 -3 87 45 0 44 0 4 -81z m286 34 l3 -43 45 0 44 0 0 -45 0 -45 53 -1 c28 0
71 -2 95 -4 l42 -3 0 49 0 50 73 -3 72 -3 3 -137 3 -137 -73 -3 -73 -3 -3 -39
c-4 -44 7 -56 55 -56 27 0 32 -4 35 -27 l3 -28 122 -3 122 -3 3 28 c3 25 7 28
46 31 41 3 42 2 42 -27 0 -30 -1 -31 -45 -31 l-45 0 0 -45 0 -44 -122 -3 -123
-3 -5 -90 -5 -90 -42 -3 -43 -3 0 41 c0 44 -9 52 -64 54 -29 1 -31 4 -36 46
l-5 45 -87 3 -88 3 0 44 0 44 88 3 c87 3 87 3 90 31 3 24 0 27 -27 27 -52 0
-61 8 -61 56 l0 44 -45 0 -44 0 -3 138 -3 137 -90 5 -90 5 -3 28 c-6 55 0 58
95 55 l88 -3 3 -42z m-98 -278 l0 -45 -140 0 -140 0 0 38 c0 21 3 42 7 45 3 4
66 7 140 7 l133 0 0 -45z m94 -61 c22 -56 -17 -99 -69 -76 -19 9 -25 19 -25
45 0 42 5 47 51 47 24 0 39 -5 43 -16z"/>
<path d="M1674 1247 c-3 -8 -4 -30 -2 -49 3 -31 5 -33 43 -33 40 0 40 0 43 43
2 23 2 42 0 42 -2 1 -20 3 -41 6 -27 4 -39 2 -43 -9z"/>
<path d="M1487 1153 c-4 -3 -7 -24 -7 -45 l0 -38 45 0 45 0 0 45 0 45 -38 0
c-21 0 -42 -3 -45 -7z"/>
<path d="M6200 1675 l0 -45 45 0 45 0 0 45 0 45 -45 0 -45 0 0 -45z"/>
<path d="M2580 1245 c-6 -8 -10 -29 -8 -47 3 -29 7 -33 36 -36 18 -2 40 2 48
9 14 12 20 78 7 80 -39 8 -74 5 -83 -6z"/>
<path d="M5730 1115 l0 -46 43 3 c42 3 42 3 42 43 0 40 0 40 -42 43 l-43 3 0
-46z"/>
<path d="M693 973 c-15 -3 -23 -13 -25 -31 -3 -24 -8 -27 -45 -30 -36 -3 -44
-7 -49 -27 -3 -13 -3 -33 1 -44 6 -19 14 -21 96 -21 l89 0 0 -38 c0 -45 14
-62 52 -62 36 0 54 33 39 73 -9 23 -16 27 -51 27 l-40 0 0 75 c0 41 -4 75 -9
75 -5 0 -15 2 -23 4 -7 2 -23 1 -35 -1z"/>
<path d="M294 896 c-3 -8 -4 -27 -2 -43 l3 -28 90 0 90 0 0 40 0 40 -88 3
c-69 2 -88 0 -93 -12z"/>
<path d="M2207 814 c-4 -4 -7 -27 -7 -51 l0 -43 -45 0 c-40 0 -45 -3 -51 -27
-10 -39 7 -58 52 -58 39 0 39 0 42 43 3 40 5 42 35 42 48 0 59 12 55 56 -3 37
-5 39 -38 42 -20 2 -39 0 -43 -4z"/>
<path d="M305 720 l-260 -5 -3 -322 -2 -323 315 0 315 0 0 319 c0 245 -3 322
-12 328 -16 9 -31 9 -353 3z m263 -322 l-3 -233 -225 0 -225 0 -3 233 -2 232
230 0 230 0 -2 -232z"/>
<path d="M207 534 c-4 -4 -7 -67 -7 -141 l0 -133 140 0 141 0 -3 138 -3 137
-131 3 c-71 1 -133 -1 -137 -4z"/>
<path d="M772 532 c-9 -7 -12 -41 -10 -138 l3 -129 37 -3 c43 -4 60 -26 58
-75 -1 -18 -2 -51 -1 -74 1 -41 3 -43 31 -43 29 0 30 2 30 44 l0 45 43 3 c40
3 42 5 45 38 5 46 18 60 58 60 31 0 34 -3 39 -37 10 -61 12 -63 55 -63 l40 0
0 -45 0 -45 45 0 45 0 0 44 0 45 -42 3 c-41 3 -43 5 -46 38 -5 47 -18 60 -58
60 l-34 0 0 78 c0 42 -4 82 -8 89 -5 8 -46 13 -122 15 l-115 3 -3 35 c-2 19
-8 41 -14 47 -12 15 -56 17 -76 5z"/>
<path d="M2023 534 c-7 -3 -13 -23 -13 -45 0 -33 4 -40 24 -45 49 -12 61 -2
61 46 0 43 -1 45 -30 47 -16 1 -36 0 -42 -3z"/>
<path d="M6199 528 c-3 -35 4 -74 15 -81 6 -4 25 -6 41 -5 29 3 30 5 30 48 l0
45 -42 3 c-30 2 -43 -1 -44 -10z"/>
<path d="M1202 398 c3 -43 3 -43 46 -46 l42 -3 0 45 0 46 -46 0 -45 0 3 -42z"/>
<path d="M6012 398 c3 -43 3 -43 43 -43 40 0 40 0 43 43 l3 42 -46 0 -46 0 3
-42z"/>
<path d="M1927 344 c-4 -4 -7 -25 -7 -46 l0 -38 46 0 45 0 -3 43 c-3 40 -4 42
-38 45 -20 2 -39 0 -43 -4z"/>
<path d="M2105 328 c-3 -13 -4 -75 -3 -138 l3 -115 48 -3 48 -3 -3 138 -3 138
-42 3 c-37 3 -43 0 -48 -20z"/>
<path d="M2832 247 c-6 -6 -12 -28 -14 -47 -3 -33 -5 -35 -42 -38 -48 -4 -66
-21 -66 -61 l0 -31 111 0 110 0 -7 83 c-3 45 -11 88 -16 95 -13 16 -63 16 -76
-1z"/>
<path d="M4553 253 c-7 -2 -13 -22 -13 -43 0 -45 -9 -50 -91 -50 -54 0 -59 -2
-65 -24 -14 -58 -9 -61 124 -64 l122 -3 0 33 c0 52 8 57 100 60 l85 3 3 39 c2
24 -2 42 -10 47 -14 9 -234 11 -255 2z"/>
<path d="M5832 248 c-7 -7 -12 -29 -12 -50 l0 -38 -45 0 -45 0 0 -45 0 -45 45
0 45 0 0 44 0 45 43 3 c41 3 42 4 45 42 2 24 -2 42 -10 47 -19 13 -52 11 -66
-3z"/>
<path d="M6022 251 c-8 -5 -12 -23 -10 -47 3 -38 4 -39 46 -42 l42 -3 0 -45 0
-45 47 3 c51 3 61 16 49 64 -6 21 -12 24 -51 24 l-45 0 0 44 c0 31 -5 46 -16
50 -22 8 -47 7 -62 -3z"/>
<path d="M1920 115 l0 -45 45 0 45 0 0 45 0 45 -45 0 -45 0 0 -45z"/>
<path d="M4107 153 c-4 -3 -7 -24 -7 -45 l0 -38 95 0 95 0 0 45 0 45 -88 0
c-49 0 -92 -3 -95 -7z"/>
</g>
</svg>
